<?xml version="1.0" standalone="no"?><!DOCTYPE svg PUBLIC "-//W3C//DTD SVG 1.1//EN" "http://www.w3.org/Graphics/SVG/1.1/DTD/svg11.dtd"><svg t="1505181441751" class="icon" style="" viewBox="0 0 1024 1024" version="1.1" xmlns="http://www.w3.org/2000/svg" p-id="10265" xmlns:xlink="http://www.w3.org/1999/xlink" width="32" height="32"><defs><style type="text/css"></style></defs><path d="M632.832 391.202133H278.596267l106.257066-107.349333a23.4496 23.4496 0 0 0 0-32.802133 22.766933 22.766933 0 0 0-32.597333 0L206.506667 398.336a23.4496 23.4496 0 0 0 0 32.802133l145.749333 147.319467a22.766933 22.766933 0 0 0 32.597333 0 23.722667 23.722667 0 0 0 0-33.041067l-104.686933-105.813333H632.832a145.749333 145.749333 0 0 1 0 291.498667H320.989867a24.337067 24.337067 0 0 0 0 48.674133h311.842133a194.321067 194.321067 0 0 0 0-388.608z" p-id="10266"></path></svg>