<?xml version="1.0" standalone="no"?><!DOCTYPE svg PUBLIC "-//W3C//DTD SVG 1.1//EN" "http://www.w3.org/Graphics/SVG/1.1/DTD/svg11.dtd"><svg t="1505185347826" class="icon" style="" viewBox="0 0 1025 1024" version="1.1" xmlns="http://www.w3.org/2000/svg" p-id="15910" xmlns:xlink="http://www.w3.org/1999/xlink" width="32.03125" height="32"><defs><style type="text/css"></style></defs><path d="M512.224 138.997q61.914 0 121.19 16.992t105.711 44.554 87.962 62.293 71.357 71.735 51.347 71.735 32.092 62.293 10.569 43.418-10.569 43.418-32.47 62.293-51.725 71.735-71.357 71.735-87.962 62.293-105.711 44.554-120.433 16.992-120.433-16.992-105.711-44.554-87.962-62.293-71.357-71.735-51.725-71.735-32.47-62.293-10.569-43.418 10.569-43.418 32.092-62.293 51.347-71.735 71.357-71.735 87.962-62.293 105.711-44.554 121.19-16.992zM729.682 339.086q-11.325-11.325-13.593-9.063t3.775 16.613q18.875 43.040 18.875 89.854 0 93.628-66.446 160.076t-160.076 66.446-160.076-66.446-66.446-160.076q0-44.551 17.369-86.078 6.038-14.343 3.397-16.613t-13.217 9.065q-52.852 52.103-120.81 138.93-9.815 12.082-11.325 30.578t6.793 32.093q16.613 27.182 35.491 53.607t52.852 61.914 69.843 61.156 85.322 44.175 100.8 18.497 100.8-18.118 85.322-44.175 69.843-61.537 52.852-61.537 35.488-53.229q8.307-13.591 6.793-32.093t-10.569-31.335q-67.959-88.34-123.072-142.705zM397.453 416.11l-26.425 27.182q-11.325 11.325-14.722 29.072t3.397 31.335q27.938 51.347 70.222 87.589 12.082 9.817 29.072 8.307t27.561-12.839l26.425-25.668q10.569-11.325 9.442-25.296t-12.46-25.296q-33.222-33.222-67.204-88.34-8.307-13.593-21.143-15.1t-24.164 9.063z" p-id="15911"></path></svg>