<?xml version="1.0" standalone="no"?><!DOCTYPE svg PUBLIC "-//W3C//DTD SVG 1.1//EN" "http://www.w3.org/Graphics/SVG/1.1/DTD/svg11.dtd"><svg t="1505181434452" class="icon" style="" viewBox="0 0 1024 1024" version="1.1" xmlns="http://www.w3.org/2000/svg" p-id="10031" xmlns:xlink="http://www.w3.org/1999/xlink" width="32" height="32"><defs><style type="text/css"></style></defs><path d="M680.661333 732.757333c70.058667-8.96 111.36-36.266667 111.36-75.306666 0-46.634667-49.621333-101.248-114.986666-120.448l-47.573334-13.952 43.946667-22.954667a90.88 90.88 0 0 0 49.066667-79.36A96.170667 96.170667 0 0 0 596.693333 332.8a160 160 0 0 1-85.205333 161.28c99.114667 28.16 177.493333 111.189333 177.493333 194.730667 0 15.957333-2.858667 30.592-8.362666 43.946666z m-31.232 42.752c-42.453333 37.333333-116.394667 56.490667-208.896 56.490667-148.053333 0-248.533333-49.066667-248.533333-143.189333 0-82.56 76.714667-164.693333 174.208-193.792a160.128 160.128 0 0 1-88.234667-143.189334 161.365333 161.365333 0 0 1 162.986667-159.829333 160.128 160.128 0 0 1 146.048 101.930667 136.32 136.32 0 0 1 175.402667 126.250666 131.413333 131.413333 0 0 1-70.485334 115.370667l-3.669333-36.906667c12.288 3.584 24.106667 8.192 35.370667 13.696 63.274667 30.848 108.373333 88.96 108.373333 145.066667 0 73.344-73.258667 113.237333-182.570667 118.101333z m-209.066666-543.488A121.173333 121.173333 0 0 0 317.909333 352a119.978667 119.978667 0 1 0 122.368-119.978667z m0.170666 291.968c-108.928 0-208.554667 85.674667-208.554666 164.821334 0 64.256 79.829333 103.210667 208.554666 103.210666 128.682667 0 208.512-38.954667 208.512-103.253333 0-79.189333-99.456-164.778667-208.512-164.778667z" p-id="10032"></path></svg>