<?xml version="1.0" standalone="no"?><!DOCTYPE svg PUBLIC "-//W3C//DTD SVG 1.1//EN" "http://www.w3.org/Graphics/SVG/1.1/DTD/svg11.dtd"><svg t="1505181552856" class="icon" style="" viewBox="0 0 1024 1024" version="1.1" xmlns="http://www.w3.org/2000/svg" p-id="11201" xmlns:xlink="http://www.w3.org/1999/xlink" width="32" height="32"><defs><style type="text/css"></style></defs><path d="M311.466667 810.538667c-69.888-0.085333-98.090667-29.184-98.090667-100.992 0-133.802667-0.085333-267.52 0-401.237334 0-63.274667 29.781333-94.549333 91.818667-94.677333 165.504-0.384 245.418667-0.426667 410.922666 0 63.701333 0.213333 94.421333 32.512 94.464 97.28 0.128 134.4 0.128 268.8 0 403.285333 0 65.706667-29.568 96.085333-94.421333 96.298667-82.730667 0.298667-165.461333 0.085333-248.192 0.085333-80.64 0-75.776 0.085333-156.501333 0zM775.850667 716.8V307.370667c0-42.922667-14.933333-58.538667-56.362667-58.581334-166.784-0.085333-248.021333-0.085333-414.848 0-41.514667 0-56.405333 15.658667-56.448 58.453334V716.8c0 42.88 14.933333 58.410667 56.405333 58.496 82.688 0.128 79.872 0.042667 162.56 0.042667 84.053333 0 168.149333 0.085333 252.245334-0.042667 41.557333-0.042667 56.405333-15.573333 56.448-58.453333zM550.4 338.602667c18.389333-39.637333 52.437333-39.850667 87.808-39.936 32.981333-0.085333 63.402667 5.077333 76.885333 40.277333 13.312 34.773333 14.037333 72.277333-0.426666 106.581333-17.408 41.557333-55.338667 40.618667-91.776 40.021334-31.573333-0.469333-58.154667-9.514667-72.832-41.685334-7.978667-17.621333-4.650667-36.437333-5.504-53.504 0.341333-18.346667-1.621333-35.584 5.845333-51.754666z m84.992 110.506666c4.778667 0 9.557333 0.085333 14.336-0.085333 22.058667-0.682667 35.968-10.24 37.76-30.890667 3.413333-39.552 4.138667-69.845333-18.005333-79.786666a36.650667 36.650667 0 0 0-13.909334-2.645334 703.445333 703.445333 0 0 0-45.098666 0c-19.626667 0.853333-29.696 11.392-30.976 32-0.512 7.68-0.128 15.573333-0.128 23.381334-0.213333 53.546667 4.138667 58.069333 56.021333 58.026666z m-302.293333 233.514667c-6.144 0-12.373333 0.170667-18.474667-0.896-8.789333-1.536-15.786667-6.741333-16-16.64-0.256-11.050667 6.912-17.92 16.725333-18.005333 91.264-0.426667 96.768-0.384 187.946667 0 8.96 0 15.488 6.144 15.786667 16.469333 0.213333 11.392-6.826667 17.365333-16.554667 18.133333-15.701333 1.152-31.488 0.853333-47.274667 0.938667-30.165333 0.128-60.373333 0-90.538666 0h-31.616z m-34.133334-95.018667c0.341333-16.128 14.293333-17.152 26.112-17.194666 84.224-0.213333 82.773333-0.213333 166.997334-0.042667 12.672 0 26.794667 1.194667 26.368 19.072-0.426667 16.810667-14.08 16.64-25.941334 16.64-42.453333 0.085333-84.906667 0.042667-127.36 0.042667H325.546667c-12.928 0-27.093333-0.853333-26.624-18.517334z" p-id="11202"></path></svg>