<?xml version="1.0" standalone="no"?><!DOCTYPE svg PUBLIC "-//W3C//DTD SVG 1.1//EN" "http://www.w3.org/Graphics/SVG/1.1/DTD/svg11.dtd"><svg t="1505185334006" class="icon" style="" viewBox="0 0 1024 1024" version="1.1" xmlns="http://www.w3.org/2000/svg" p-id="15442" xmlns:xlink="http://www.w3.org/1999/xlink" width="32" height="32"><defs><style type="text/css"></style></defs><path d="M861.090211 464.477091v-0.558546a47.476364 47.476364 0 1 0-94.952727 0 254.021818 254.021818 0 1 1-508.043637 0 47.522909 47.522909 0 0 0-47.476363-47.918545A48.034909 48.034909 0 0 0 162.908393 463.918545v0.558546a349.882182 349.882182 0 0 0 301.381818 347.624727v115.944727H305.802938a47.988364 47.988364 0 0 0 0 95.953455h412.392727a47.988364 47.988364 0 0 0 0-95.953455h-158.254545V812.218182A349.696 349.696 0 0 0 861.090211 464.477091z m-349.090909 175.197091a191.045818 191.045818 0 0 0 190.603636-191.883637v-256a190.603636 190.603636 0 1 0-381.207273 0v256A191.185455 191.185455 0 0 0 511.999302 639.674182z" p-id="15443"></path></svg>