<?xml version="1.0" standalone="no"?><!DOCTYPE svg PUBLIC "-//W3C//DTD SVG 1.1//EN" "http://www.w3.org/Graphics/SVG/1.1/DTD/svg11.dtd"><svg t="1505185432336" class="icon" style="" viewBox="0 0 1024 1024" version="1.1" xmlns="http://www.w3.org/2000/svg" p-id="16729" xmlns:xlink="http://www.w3.org/1999/xlink" width="32" height="32"><defs><style type="text/css"></style></defs><path d="M512 0a512 512 0 1 0 512 512A512 512 0 0 0 512 0m67.584 791.296a326.1184 326.1184 0 0 1-78.3104 43.776 96.0512 96.0512 0 0 1-48.256 5.632 30.4128 30.4128 0 0 1-25.6-20.48q-18.2016-53.76 32.7424-303.616a38.1184 38.1184 0 0 0-0.2816-19.456c-1.9456-5.632-7.68-6.912-17.5104-3.584a118.2464 118.2464 0 0 0-34.5856 19.456 892.416 892.416 0 0 0-77.2352 75.008l-40.6528-2.56a727.7056 727.7056 0 0 1 125.1072-117.248A428.928 428.928 0 0 1 522.24 409.6a105.6256 105.6256 0 0 1 41.7536-7.424 19.3024 19.3024 0 0 1 19.3024 11.52 552.96 552.96 0 0 1-16.7936 123.392q-34.0736 181.76-23.4496 212.992a12.4928 12.4928 0 0 0 9.088 7.936 20.48 20.48 0 0 0 13.5424 0q25.9584-8.832 114.9952-98.304l37.1712 5.632a1298.176 1298.176 0 0 1-138.24 125.952m28.288-542.208a114.9184 114.9184 0 0 1-50.688 33.28 86.0672 86.0672 0 0 1-43.52 4.608 28.16 28.16 0 0 1-24.2432-17.92 40.96 40.96 0 0 1 12.3904-40.96 117.4016 117.4016 0 0 1 51.4048-32.512 90.2144 90.2144 0 0 1 44.3392-5.12 27.2128 27.2128 0 0 1 23.8592 16.896 42.5472 42.5472 0 0 1-13.44 41.728" p-id="16730"></path></svg>