<?xml version="1.0" standalone="no"?><!DOCTYPE svg PUBLIC "-//W3C//DTD SVG 1.1//EN" "http://www.w3.org/Graphics/SVG/1.1/DTD/svg11.dtd"><svg t="1505181324539" class="icon" style="" viewBox="0 0 1024 1024" version="1.1" xmlns="http://www.w3.org/2000/svg" p-id="9797" xmlns:xlink="http://www.w3.org/1999/xlink" width="32" height="32"><defs><style type="text/css"></style></defs><path d="M955.7059818061211 973.3055156218383h-874.1125814728914c-20.914350121390765 0-40.05902446327923-19.841818822238157-40.11265204944536-41.346061393826346v-255.36957711236178c0-41.45331499506861 20.21720564104107-63.17206319805132 41.45331499506861-42.36496667790283l118.19289197894086 95.88425132576072c15.873456000444527 13.99652661969997 39.73726523064245 33.087574946512305 53.090273385068855 16.46334845064196l135.46063694008478-169.5134895845074c13.245754553184149-16.62422649587035 37.21681738462432-40.11265047835536 53.251153001387245-26.223377459897645l116.58409424466697 104.5717506069538c15.980708030596787 13.889273018457711 49.12190899218523 38.07484305238241 62.153159485064855 21.182483338951414l290.11957423713415-360.2094609368762c39.14737278044501-46.11882386830194 82.85300240397109-35.28626198880364 82.85300240397109 21.18248176786141v594.3965562813768c0 21.504242571588193-18.018517027659733 41.346061393826346-38.93286714905049 41.29243537875023z m-340.1531349121535-442.4189448755738a63.815581663324906 63.815581663324906 0 0 1-43.97376284108673 25.043594130592787 61.99227829765646 61.99227829765646 0 0 1-47.99575167795649-15.122683933928705l-131.49227254720117-114.17090157098112-132.0821649973986 179.64890541256602a63.92283369347715 63.92283369347715 0 0 1-51.2133455754143 26.277003474973768c-14.693671100049661 0-29.06558453855255-5.255401323430757-40.59528932731054-15.015430332686444l-115.29705888520984-97.17128825630785a67.569438853724 67.569438853724 0 0 1-9.009258513829867-93.09567183327196 62.850303965414554 62.850303965414554 0 0 1 90.30709234078317-9.331017746466644l63.70832806208262 53.73379185034243 132.67205587650602-180.45330349415798c10.61805467701377-14.479165468655143 26.545136692534427-23.81018321512179 43.97376284108673-25.794364626018606 17.643131779946824-1.9841814108968145 35.07175635740912 3.4857255439284613 48.53201654198779 15.122683933928705l132.18941859864086 114.76079245008854 170.85415253013068-220.83408561898398-47.62036643024358-40.75617051471892c-33.784719426862-28.904704922234156-26.277003474973768-60.22260251815417 16.677854082036482-69.55362026462082l247.59372951400297-53.94829748173694c42.95485755701027-9.384643761542776 56.254239696360536 12.334104441439937 29.494595801341593 48.26388489551715l-356.7237353929478 472.34255351079446z" p-id="9798"></path></svg>