<?xml version="1.0" standalone="no"?><!DOCTYPE svg PUBLIC "-//W3C//DTD SVG 1.1//EN" "http://www.w3.org/Graphics/SVG/1.1/DTD/svg11.dtd"><svg t="1505185424808" class="icon" style="" viewBox="0 0 1024 1024" version="1.1" xmlns="http://www.w3.org/2000/svg" p-id="16495" xmlns:xlink="http://www.w3.org/1999/xlink" width="32" height="32"><defs><style type="text/css"></style></defs><path d="M698.293073 62.189268C610.628683 37.713171 512 0 512 0s-98.628683 37.713171-186.293073 62.189268S74.926829 88.913171 74.926829 88.913171v267.239024s21.90361 247.00878 63.587903 322.934634c48.202927 140.113171 239.765854 293.713171 373.510244 344.913171 133.669463-51.2 325.282341-204.8 373.510244-344.913171 41.684293-75.925854 63.562927-322.934634 63.562926-322.934634V88.913171s-163.190634-1.998049-250.780097-26.723903z m140.512781 282.973659L475.735415 709.557073a23.15239 23.15239 0 0 1-33.042732 0l-7.342829-7.242927-7.942244-7.992195-34.241561-34.466341c-0.199805-0.249756-0.299707-0.499512-0.499512-0.749269l-156.971708-158.844878a23.252293 23.252293 0 0 1 0-32.967804l49.501659-49.701464a23.15239 23.15239 0 0 1 33.042732 0l141.212097 142.860488L756.311415 262.243902a23.15239 23.15239 0 0 1 33.042731 0l49.526634 49.701464a23.651902 23.651902 0 0 1 0 33.217561z" p-id="16496"></path></svg>