<?xml version="1.0" standalone="no"?><!DOCTYPE svg PUBLIC "-//W3C//DTD SVG 1.1//EN" "http://www.w3.org/Graphics/SVG/1.1/DTD/svg11.dtd"><svg t="1505181965483" class="icon" style="" viewBox="0 0 1024 1024" version="1.1" xmlns="http://www.w3.org/2000/svg" p-id="13200" xmlns:xlink="http://www.w3.org/1999/xlink" width="32" height="32"><defs><style type="text/css"></style></defs><path d="M385.990897 546.133314H93.013282A92.814171 92.814171 0 0 0 0 638.890596v292.408727a92.814171 92.814171 0 0 0 93.013282 92.728837h292.977615a92.984837 92.984837 0 0 0 93.013281-92.728837V638.862152a92.984837 92.984837 0 0 0-93.013281-92.728838z m0-546.13303H93.013282A92.814171 92.814171 0 0 0 0 92.729122v292.408726a92.785726 92.785726 0 0 0 93.013282 92.728838h292.977615a92.956393 92.956393 0 0 0 93.013281-92.728838V92.729122A92.984837 92.984837 0 0 0 385.990897 0.000284z m544.995252 546.13303h-292.977615a92.984837 92.984837 0 0 0-93.013281 92.757282v292.408727a92.984837 92.984837 0 0 0 93.013281 92.728837h292.977615a92.814171 92.814171 0 0 0 93.013282-92.728837V638.862152a92.814171 92.814171 0 0 0-93.013282-92.757282z m-107.51994-58.823078l176.639902-176.156347a79.246178 79.246178 0 0 0 0-111.729715L823.466209 23.267827a79.103956 79.103956 0 0 0-111.786604 0l-176.639902 176.156347a78.734178 78.734178 0 0 0 0 111.729715l176.639902 176.156347a79.047067 79.047067 0 0 0 111.786604-0.028444z" p-id="13201"></path></svg>