<?xml version="1.0" standalone="no"?><!DOCTYPE svg PUBLIC "-//W3C//DTD SVG 1.1//EN" "http://www.w3.org/Graphics/SVG/1.1/DTD/svg11.dtd"><svg t="1505185233652" class="icon" style="" viewBox="0 0 1024 1024" version="1.1" xmlns="http://www.w3.org/2000/svg" p-id="14857" xmlns:xlink="http://www.w3.org/1999/xlink" width="32" height="32"><defs><style type="text/css"></style></defs><path d="M223.502865 430.134481c8.41567 32.107255 22.352077 62.110593 40.660048 88.998987 85.527932 139.713019 252.485455 261.638929 252.485455 261.638929s168.268378-126.898155 253.359358-270.109858c7.268544-11.531638 13.771655-23.608697 19.400862-36.123732 17.871019-37.462217 28.910447-75.417667 28.636201-111.950721C816.787146 197.951421 683.057399 64.46829 516.647345 64.46829c-0.382717 0-0.765433 0-1.14815 0-0.436952 0-0.819668 0-1.202385 0C348.487438 64.46829 214.102774 195.547675 214.102774 357.231077c0 8.525164 0.382717 16.941857 1.14815 25.275663C216.069569 398.246213 218.966549 414.149415 223.502865 430.134481L223.502865 430.134481zM516.647345 190.164061c95.801926 0 173.514869 76.701916 173.514869 171.329087 0 94.599542-77.711919 171.274852-173.514869 171.274852-95.857185 0-173.514869-76.674287-173.514869-171.274852C343.132476 266.865977 420.79016 190.164061 516.647345 190.164061L516.647345 190.164061zM511.674077 780.771373c121.4337 0 219.859383 30.057573 219.859383 67.165726S633.107777 915.102824 511.674077 915.102824c-121.432677 0-219.859383-30.057573-219.859383-67.165726S390.2414 780.771373 511.674077 780.771373c-169.962973 0-307.791062 40.113603-307.791062 89.517803C203.883015 919.80287 341.711104 959.861214 511.674077 959.861214s307.791062-40.058344 307.791062-89.572038C819.465139 820.884976 681.63705 780.771373 511.674077 780.771373L511.674077 780.771373zM511.674077 780.771373" p-id="14858"></path></svg>