<?xml version="1.0" standalone="no"?><!DOCTYPE svg PUBLIC "-//W3C//DTD SVG 1.1//EN" "http://www.w3.org/Graphics/SVG/1.1/DTD/svg11.dtd"><svg t="1505180465226" class="icon" style="" viewBox="0 0 1287 1024" version="1.1" xmlns="http://www.w3.org/2000/svg" p-id="7097" xmlns:xlink="http://www.w3.org/1999/xlink" width="251.3671875" height="200"><defs><style type="text/css"></style></defs><path d="M1100.45 90.128h-959.942c-0.137-0.002-0.298-0.003-0.46-0.003-27.396 0-49.638 22.066-49.923 49.395v744.933c0.285 27.355 22.527 49.421 49.923 49.421 0.162 0 0.323-0.001 0.485-0.003h959.917c0.137 0.002 0.298 0.003 0.46 0.003 27.396 0 49.638-22.066 49.923-49.395v-744.933c-0.285-27.355-22.527-49.421-49.923-49.421-0.162 0-0.323 0.001-0.486 0.003zM1049.391 667.49l-186.299-183.213c-10.624-10.288-25.122-16.629-41.102-16.629s-30.48 6.341-41.118 16.644l-218.755 215.019-93.463-92.571c-9.792-9.401-23.114-15.188-37.788-15.188s-27.995 5.788-37.807 15.206l-198.864 195.49c-2.1-5.269-3.321-11.376-3.327-17.767l0.001-545.856c0.285-27.355 22.527-49.421 49.923-49.421 0.162 0 0.323 0.001 0.485 0.003h757.682c0.137-0.002 0.298-0.003 0.46-0.003 27.396 0 49.638 22.066 49.923 49.395v428.89zM418.27 288.768c-54.013 0.935-97.441 44.941-97.441 99.090 0 54.733 44.37 99.104 99.104 99.104 54.733 0 99.104-44.37 99.104-99.104 0-0.004 0-0.007 0-0.010-0.462-54.821-45.009-99.083-99.897-99.083-0.307 0-0.612 0.002-0.918 0.005z" p-id="7098"></path></svg>