<?xml version="1.0" standalone="no"?><!DOCTYPE svg PUBLIC "-//W3C//DTD SVG 1.1//EN" "http://www.w3.org/Graphics/SVG/1.1/DTD/svg11.dtd"><svg t="1505181538906" class="icon" style="" viewBox="0 0 1024 1024" version="1.1" xmlns="http://www.w3.org/2000/svg" p-id="10967" xmlns:xlink="http://www.w3.org/1999/xlink" width="32" height="32"><defs><style type="text/css"></style></defs><path d="M545.1412009615883 557.3144257867101c0-15.283563550247095-3.056712710049419-29.70910300382611-9.223764145224386-43.22299077457091a113.84914233834434 113.84914233834434 0 0 0-24.989968115516653-35.3935155900459 119.31904929316961 119.31904929316961 0 0 0-82.10223033745525-32.87306774402778h-309.9613946304624a119.31904929316961 119.31904929316961 0 0 0-82.04860432237913 32.81944172895166 113.84914233834434 113.84914233834434 0 0 0-25.043592559502777 35.3935155900459 103.17746007516442 103.17746007516442 0 0 0-9.22376571631439 43.276616789647036v298.0026754367353c0 15.283563550247095 3.056712710049419 29.869982620144494 9.22376571631439 43.759255638602205 6.167051435174968 13.889273018457711 14.479165468655143 25.847992212184735 25.043592559502777 35.9297804540772a119.31904929316961 119.31904929316961 0 0 0 82.04860432237913 32.81944172895166h309.9613946304624a119.31904929316961 119.31904929316961 0 0 0 82.04860432237913-32.81944172895166 112.18671858899427 112.18671858899427 0 0 0 34.3209842908933-79.6890360926794v-298.0026754367353z m399.0887020708507 212.57559917166995c21.02160372263302 0 39.14737278044501-7.293208749403701 54.37731031561597-21.879627819301103a69.71449988093921 69.71449988093921 0 0 0 22.844905517211448-52.12499568715852v-173.96449125525626c0-20.860724106314635-7.614967982040481-38.611107916413715-22.844905517211448-53.143900971234984a75.88155288720418 75.88155288720418 0 0 0-54.37731031561597-21.879627819301103h-183.77814942176806a77.75848069685873 77.75848069685873 0 0 0-54.91357517964728 21.879627819301103c-15.551696767807746 14.586419069897405-23.381170381242747 32.28317686492035-23.381170381242747 53.090273385068855v174.01811884142236c0 20.16357805487494 7.829475184525005 37.53857661726111 23.381170381242747 52.12499568715852 15.605322782883874 14.586419069897405 33.89197302810426 21.879627819301103 54.91357517964728 21.879627819301103h183.77814942176806z m0-390.7229620222944c21.02160372263302 0 39.14737278044501-7.293208749403701 54.37731031561597-21.879627819301103a69.71449988093921 69.71449988093921 0 0 0 22.844905517211448-52.12499568715852V130.17904446138334a69.71449988093921 69.71449988093921 0 0 0-22.844905517211448-52.071369672082376A75.88155288720418 75.88155288720418 0 0 0 944.2299030324393 56.17442095492362h-183.77814942176806a77.75848069685873 77.75848069685873 0 0 0-54.91357517964728 21.879627819301103c-15.551696767807746 14.586419069897405-23.381170381242747 31.961417632283574-23.381170381242747 52.07136810099238v175.03702255440882c0 20.16357805487494 7.829475184525005 37.53857661726111 23.381170381242747 52.12499568715852 15.605322782883874 14.586419069897405 33.89197302810426 21.879627819301103 54.91357517964728 21.879627819301103h183.77814942176806z m-476.25729188860197 0a77.75848069685873 77.75848069685873 0 0 0 54.913576750737285-21.879627819301103c15.551696767807746-14.586419069897405 23.381170381242747-31.961417632283574 23.381170381242747-52.12499568715852V130.17904446138334c0-20.109952039798813-7.829475184525005-37.48495060218498-23.381170381242747-52.071369672082376a77.75848069685873 77.75848069685873 0 0 0-54.913576750737285-21.879627819301103h-183.77814785067807c-21.02160372263302 0-39.14737278044501 7.293208749403701-54.37731031561597 21.879627819301103a69.71449988093921 69.71449988093921 0 0 0-22.844905517211448 52.071369672082376v175.03702255440882c0 20.16357805487494 7.614967982040481 37.53857661726111 22.844905517211448 52.12499568715852 15.229937535170963 14.586419069897405 33.355706592982955 21.879627819301103 54.37731031561597 21.879627819301103h183.77814785067807z" p-id="10968"></path></svg>