<?xml version="1.0" standalone="no"?><!DOCTYPE svg PUBLIC "-//W3C//DTD SVG 1.1//EN" "http://www.w3.org/Graphics/SVG/1.1/DTD/svg11.dtd"><svg t="1505181334559" class="icon" style="" viewBox="0 0 1024 1024" version="1.1" xmlns="http://www.w3.org/2000/svg" p-id="9914" xmlns:xlink="http://www.w3.org/1999/xlink" width="32" height="32"><defs><style type="text/css"></style></defs><path d="M426.666667 426.666667H85.333333c-46.421333 0-85.333333 38.229333-85.333333 85.333333 0 47.445333 38.314667 85.333333 85.333333 85.333333h341.333334v341.333334c0 46.421333 38.229333 85.333333 85.333333 85.333333 47.445333 0 85.333333-38.314667 85.333333-85.333333V597.333333h341.333334c46.421333 0 85.333333-38.229333 85.333333-85.333333 0-47.445333-38.314667-85.333333-85.333333-85.333333H597.333333V85.333333c0-46.421333-38.229333-85.333333-85.333333-85.333333-47.445333 0-85.333333 38.314667-85.333333 85.333333v341.333334z" p-id="9915"></path></svg>