<?xml version="1.0" standalone="no"?><!DOCTYPE svg PUBLIC "-//W3C//DTD SVG 1.1//EN" "http://www.w3.org/Graphics/SVG/1.1/DTD/svg11.dtd"><svg t="1505185237551" class="icon" style="" viewBox="0 0 1024 1024" version="1.1" xmlns="http://www.w3.org/2000/svg" p-id="14974" xmlns:xlink="http://www.w3.org/1999/xlink" width="32" height="32"><defs><style type="text/css"></style></defs><path d="M100.844609 347.507145c22.716898 0 41.136005-18.419107 41.136005-41.136005V141.929449h164.44169c22.716898 0 41.136005-18.419107 41.136005-41.136004s-18.419107-41.136005-41.136005-41.136005H100.844609c-22.716898 0-41.136005 18.419107-41.136005 41.136005v205.577695c0 22.716898 18.419107 41.136005 41.136005 41.136005zM923.155391 59.759768H717.577696c-22.716898 0-41.136005 18.419107-41.136005 41.136005s18.419107 41.136005 41.136005 41.136005h164.44169v164.441691c0 22.716898 18.419107 41.136005 41.136005 41.136004s41.136005-18.419107 41.136005-41.136004v-205.680024c0-22.716898-18.419107-41.033676-41.136005-41.033677zM306.422304 882.070551H141.980614V717.62886c0-22.716898-18.419107-41.136005-41.136005-41.136005s-41.136005 18.419107-41.136005 41.136005v205.577695c0 22.716898 18.419107 41.136005 41.136005 41.136005h205.577695c22.716898 0 41.136005-18.419107 41.136005-41.136005 0-22.716898-18.419107-41.136005-41.136005-41.136004zM923.155391 676.492855c-22.716898 0-41.136005 18.419107-41.136005 41.136005V882.070551H717.577696c-22.716898 0-41.136005 18.419107-41.136005 41.136004 0 22.716898 18.419107 41.136005 41.136005 41.136005h205.577695c22.716898 0 41.136005-18.419107 41.136005-41.136005V717.62886c0-22.716898-18.419107-41.136005-41.136005-41.136005zM923.155391 470.915159H100.844609c-22.716898 0-41.136005 18.419107-41.136005 41.136005 0 22.716898 18.419107 41.136005 41.136005 41.136005h822.310782c22.716898 0 41.136005-18.419107 41.136005-41.136005 0-22.716898-18.419107-41.136005-41.136005-41.136005z" p-id="14975"></path></svg>