<?xml version="1.0" standalone="no"?><!DOCTYPE svg PUBLIC "-//W3C//DTD SVG 1.1//EN" "http://www.w3.org/Graphics/SVG/1.1/DTD/svg11.dtd"><svg t="1505181876715" class="icon" style="" viewBox="0 0 1024 1024" version="1.1" xmlns="http://www.w3.org/2000/svg" p-id="12488" xmlns:xlink="http://www.w3.org/1999/xlink" width="32" height="32"><defs><style type="text/css"></style></defs><path d="M787.989996 1024zM788.533605 0.037311H206.080698A113.663812 113.663812 0 0 0 89.6 109.871147V988.418285l407.707152-164.738399L905.014303 988.418285V109.871147A113.663812 113.663812 0 0 0 788.533605 0.037311m-9.117814 484.306677a39.535239 39.535239 0 0 1-39.065758 39.782335H254.26427a39.535239 39.535239 0 0 1-39.090467-39.782335v-22.732762a39.535239 39.535239 0 0 1 39.090467-39.757625h486.085763a39.535239 39.535239 0 0 1 39.065758 39.757625v22.732762m0-227.327623a39.535239 39.535239 0 0 1-39.065758 39.757624H254.26427A39.535239 39.535239 0 0 1 215.173803 257.016365v-22.782182a39.535239 39.535239 0 0 1 39.090467-39.782334h486.085763a39.535239 39.535239 0 0 1 39.065758 39.782334v22.782182m0 0z" p-id="12489"></path></svg>