<?xml version="1.0" standalone="no"?><!DOCTYPE svg PUBLIC "-//W3C//DTD SVG 1.1//EN" "http://www.w3.org/Graphics/SVG/1.1/DTD/svg11.dtd"><svg t="1505182477540" class="icon" style="" viewBox="0 0 1024 1024" version="1.1" xmlns="http://www.w3.org/2000/svg" p-id="14272" xmlns:xlink="http://www.w3.org/1999/xlink" width="32" height="32"><defs><style type="text/css"></style></defs><path d="M896 0H128A128 128 0 0 0 0 128v768A128 128 0 0 0 128 1024h768A128 128 0 0 0 1024 896V128A128 128 0 0 0 896 0zM136.533333 68.266667h750.933334a68.266667 68.266667 0 0 1 68.266666 68.266666v750.933334a68.266667 68.266667 0 0 1-68.266666 68.266666H136.533333a68.266667 68.266667 0 0 1-68.266666-68.266666V136.533333a68.266667 68.266667 0 0 1 68.266666-68.266666z" p-id="14273"></path></svg>