<?xml version="1.0" standalone="no"?><!DOCTYPE svg PUBLIC "-//W3C//DTD SVG 1.1//EN" "http://www.w3.org/Graphics/SVG/1.1/DTD/svg11.dtd"><svg t="1505185576920" class="icon" style="" viewBox="0 0 1138 1024" version="1.1" xmlns="http://www.w3.org/2000/svg" p-id="17782" xmlns:xlink="http://www.w3.org/1999/xlink" width="35.5625" height="32"><defs><style type="text/css"></style></defs><path d="M669.412355 970.784592V535.690061c50.203215-49.199151 114.128642-99.402366 164.331858-145.589324 51.207279-46.856334 99.737054-91.369852 146.2587-137.222122a118.613463 118.613463 0 0 0 18.742534-21.754726 138.828624 138.828624 0 0 0 10.040643-157.972784 148.701923 148.701923 0 0 0-133.875241-72.962006H152.988615a138.895562 138.895562 0 0 0-41.166636 4.016257 148.936205 148.936205 0 0 0-79.655768 50.203215A143.413851 143.413851 0 0 0 0.036153 143.770294a133.87524 133.87524 0 0 0 45.182894 103.418623C138.262339 335.211888 245.027843 414.19828 334.724254 502.22125v301.219291a50.738716 50.738716 0 1 0 100.40643 0v-301.219291a85.010778 85.010778 0 0 0-31.795369-51.541967c-44.848206-43.844141-88.692347-89.696411-131.532424-133.875241C227.624062 271.286461 182.441168 224.095438 134.58077 177.573792l-2.342817-2.342816-2.677505-1.338753a44.379642 44.379642 0 0 1-3.346881-3.681569 23.06001 23.06001 0 0 0-3.681569-4.350945 30.557024 30.557024 0 0 1-6.024386-31.125994 47.893867 47.893867 0 0 1 36.481003-31.795369h728.615996a30.992118 30.992118 0 0 1 24.097544 13.387524 44.71433 44.71433 0 0 1 8.032514 38.489131 38.455663 38.455663 0 0 1-13.722212 19.41191c-100.40643 95.051421-196.127227 189.098777-297.537722 288.835832l-0.669376 0.334688A139.698813 139.698813 0 0 0 569.005925 535.690061v435.094531a50.203215 50.203215 0 1 0 100.40643 0m422.711072-74.635447H816.67512a45.082487 45.082487 0 0 0-45.85227 45.182894v12.718148a45.2833 45.2833 0 0 0 45.85227 45.182894h275.448307A45.082487 45.082487 0 0 0 1137.975697 954.050187v-12.718148a43.04089 43.04089 0 0 0-45.85227-45.182894z m0-161.989041H816.67512a45.082487 45.082487 0 0 0-45.85227 45.182894v9.371267a45.049018 45.049018 0 0 0 45.85227 45.182894h275.448307A44.881674 44.881674 0 0 0 1137.975697 788.714265v-9.371267a45.082487 45.082487 0 0 0-45.85227-45.182894zM1104.506887 569.158871h-301.219291c-28.783177 0-32.464746 32.130058-32.464746 54.55416v6.359074a44.982081 44.982081 0 0 0 45.85227 44.848206h275.448307A44.814737 44.814737 0 0 0 1137.975697 630.072105v-6.359074c0-27.109736-6.024386-54.55416-33.46881-54.55416z" p-id="17783"></path></svg>