<?xml version="1.0" standalone="no"?><!DOCTYPE svg PUBLIC "-//W3C//DTD SVG 1.1//EN" "http://www.w3.org/Graphics/SVG/1.1/DTD/svg11.dtd"><svg t="1505181007820" class="icon" style="" viewBox="0 0 1024 1024" version="1.1" xmlns="http://www.w3.org/2000/svg" p-id="8159" xmlns:xlink="http://www.w3.org/1999/xlink" width="32" height="32"><defs><style type="text/css"></style></defs><path d="M887.467008 204.8H204.800341a105.472 105.472 0 0 1-102.4-103.901867A100.352 100.352 0 0 1 201.899008 0h591.7696a31.197867 31.197867 0 0 1 30.993067 31.402667A44.612267 44.612267 0 0 1 785.067008 68.266667H204.800341a36.113067 36.113067 0 0 0-40.413866 32.631466A38.4 38.4 0 0 0 204.800341 136.533333h682.666667a36.1472 36.1472 0 0 1 34.133333 33.826134 31.232 31.232 0 0 1-30.993066 31.4368z m3.140267 819.2H201.899008A100.352 100.352 0 0 1 102.400341 923.067733a30.993067 30.993067 0 1 1 61.986134 0A36.1472 36.1472 0 0 0 204.800341 955.733333h682.666667a39.1168 39.1168 0 0 1 34.133333 36.864 31.197867 31.197867 0 0 1-30.993066 31.402667zM133.393408 954.504533A31.232 31.232 0 0 1 102.400341 923.067733V100.898133a31.232 31.232 0 0 1 30.993067-31.4368A38.434133 38.434133 0 0 1 170.667008 102.4v819.2a38.4 38.4 0 0 1-37.2736 32.904533zM890.607275 1024A39.5264 39.5264 0 0 1 853.333675 989.866667V170.666667a37.546667 37.546667 0 0 1 37.2736-31.709867 31.197867 31.197867 0 0 1 30.993066 31.402667V992.597333a31.197867 31.197867 0 0 1-30.993066 31.402667z m-96.938667-822.203733A43.1104 43.1104 0 0 1 750.933675 170.666667V34.133333a34.133333 34.133333 0 0 1 68.266666 0v136.533334a26.794667 26.794667 0 0 1-25.531733 31.1296zM682.667008 409.6H307.200341a34.133333 34.133333 0 0 1 0-68.266667h375.466667a34.133333 34.133333 0 0 1 0 68.266667z m-170.666667 136.533333H307.200341a34.133333 34.133333 0 0 1 0-68.266666h204.8a34.133333 34.133333 0 0 1 0 68.266666z" p-id="8160"></path></svg>