<?xml version="1.0" standalone="no"?><!DOCTYPE svg PUBLIC "-//W3C//DTD SVG 1.1//EN" "http://www.w3.org/Graphics/SVG/1.1/DTD/svg11.dtd"><svg t="1505185245509" class="icon" style="" viewBox="0 0 1024 1024" version="1.1" xmlns="http://www.w3.org/2000/svg" p-id="15208" xmlns:xlink="http://www.w3.org/1999/xlink" width="32" height="32"><defs><style type="text/css"></style></defs><path d="M607.510616 1023.968001c-45.278585 0-44.7986-95.997 0.479985-95.997 114.780413-25.055217 192.377988-91.997125 255.992-191.994a411.027155 411.027155 0 0 0 63.998-319.990001c-35.582888-167.99475-155.451142-278.807287-319.99-319.99-20.831349-5.215837-29.75907-44.7986-24.607231-66.013937a38.846786 38.846786 0 0 1 46.910534-28.7991A517.871817 517.871817 0 0 1 1012.233968 399.9875a526.607544 526.607544 0 0 1-71.03778 394.707666 521.103716 521.103716 0 0 1-144.763476 150.3953h28.7991a39.35877 39.35877 0 0 1 0 78.685541l-217.5932 0.223993z m-204.601607 0a37.342833 37.342833 0 0 1-9.247711-1.151964A517.871817 517.871817 0 0 1 11.689235 623.980501 526.73554 526.73554 0 0 1 82.759014 229.272835a519.471767 519.471767 0 0 1 144.859473-150.3953h-28.7991a39.326771 39.326771 0 0 1 0-78.653542h217.5932a38.974782 38.974782 0 0 1 38.3988 35.1989A70.173807 70.173807 0 0 1 415.9966 95.997c-114.780413 25.055217-192.377988 91.965126-255.992 191.994a411.027155 411.027155 0 0 0-63.998 319.990001c35.582888 167.898753 155.451142 278.807287 319.99 319.99 41.854692 0 24.703228 95.997-13.087591 95.997zM671.988601 479.985H351.9986c-48.63848 0-48.63848-95.997 0-95.997h319.990001c48.702478 0 48.702478 95.997 0 95.997z m0 159.995001H351.9986c-48.63848 0-48.63848-95.997 0-95.997h319.990001c48.702478 0 48.702478 95.997 0 95.997z" p-id="15209"></path></svg>