<?xml version="1.0" standalone="no"?><!DOCTYPE svg PUBLIC "-//W3C//DTD SVG 1.1//EN" "http://www.w3.org/Graphics/SVG/1.1/DTD/svg11.dtd"><svg t="1505181890008" class="icon" style="" viewBox="0 0 1024 1024" version="1.1" xmlns="http://www.w3.org/2000/svg" p-id="12840" xmlns:xlink="http://www.w3.org/1999/xlink" width="32" height="32"><defs><style type="text/css"></style></defs><path d="M870.628 933.106V214.488l0.002-0.047c0-4.625-1.144-8.982-3.157-12.806-4.585-8.718-13.705-14.667-24.234-14.667-0.083 0-0.163 0.006-0.244 0.006h-58.046V92.96c0-1.825-0.182-3.608-0.52-5.334-0.014-0.066-0.022-0.133-0.035-0.199-0.032-0.153-0.072-0.304-0.106-0.456a27.476 27.476 0 0 0-12.516-17.498 27.23 27.23 0 0 0-14.212-3.976H234.525c-47.997 0-87.12 38.813-87.894 86.762-0.025 0.477-0.038 0.957-0.038 1.44v718.74c0 0.482 0.013 0.962 0.038 1.439 0.772 47.978 39.895 86.79 87.894 86.79H843.24c3.314 0 6.488-0.589 9.426-1.667 10.492-3.851 17.964-13.95 17.967-25.797l-0.004-0.097z m-636.103-812.68h495.643v66.548H234.525c-18.294 0-33.152-14.923-33.152-33.275 0-18.347 14.858-33.272 33.152-33.272zM815.843 905.74H234.528c-18.297 0-33.153-14.922-33.153-33.303l-0.002-0.049V235.37a87.155 87.155 0 0 0 33.152 6.533h581.318V905.74z m-478.05-485.284h329.515c15.09 0 27.39-12.305 27.39-27.465 0-15.163-12.3-27.464-27.39-27.464H337.793c-15.095 0-27.331 12.301-27.331 27.464 0 15.16 12.236 27.465 27.331 27.465z m0 124.514h170.819c15.148 0 27.389-12.304 27.389-27.464 0-15.165-12.242-27.465-27.39-27.465H337.794c-15.095 0-27.331 12.3-27.331 27.465 0 15.16 12.236 27.464 27.331 27.464z" p-id="12841"></path></svg>