<?xml version="1.0" standalone="no"?><!DOCTYPE svg PUBLIC "-//W3C//DTD SVG 1.1//EN" "http://www.w3.org/Graphics/SVG/1.1/DTD/svg11.dtd"><svg t="1505185570825" class="icon" style="" viewBox="0 0 1024 1024" version="1.1" xmlns="http://www.w3.org/2000/svg" p-id="17665" xmlns:xlink="http://www.w3.org/1999/xlink" width="32" height="32"><defs><style type="text/css"></style></defs><path d="M454.775 655.145c0.343 0.001 0.749 0.001 1.155 0.001 51.727 0 101.827-6.965 149.413-20.007 68.137-18.837 130.333-54.303 181.242-101.727 1.823 5.317 46.972-50.738 72.22-116.645 0.229 13.225 20.658-46.499 24.201-110.723-0.372 14.685 1.323-5.969 1.323-27.020 0-0.718-0.002-1.435-0.006-2.151 0.057-1.933 0.089-4.338 0.089-6.751 0-53.214-15.699-102.761-42.718-144.263-34.709-51.328-87.523-89.559-149.299-105.483-12.831-8.634-67.687-20.374-125.287-20.374-2.234 0-4.463 0.018-6.689 0.053-101.879 0.34-195.942 34.967-271.023 92.971-61.956 47.726-110.326 113.721-136.887 189.934 7.346-32.254-13.897 29.346-18.285 95.555l319.342-42.189c4.848-25.412 17.23-47.362 34.699-64.027 3.266-6.14 21.024-15.561 40.983-15.562 32.578 0 48.868 20.246 48.868 60.972-4.013 31.363-21.408 58.001-46.183 74.374-18.020 13.87-45.708 23.841-75.725 23.841-0.512 0-1.023-0.003-1.533-0.009-26.002-1.633-50.281-7.498-72.695-16.922l-24.967 245.45c29.447 6.802 63.262 10.702 97.987 10.705zM367.483 731.941c-41.79 17.493-75.718 46.871-98.396 83.886-1.003-3.673-15.605 29.399-18.014 65.804-0.362-2.278-1.275 8.325-1.325 19.133 0.167-6.951 0.154-5.97 0.154-4.987 0 25.399 8.527 48.806 22.873 67.516 19.923 25.467 48.185 44.010 80.672 51.52 1.887 3.209 28.515 8.94 56.481 8.955 32.761-0.149 64.182-7.006 92.725-19.278 39.214-16.156 73.024-44.834 95.974-81.071 0.771 4.215 15.735-28.461 18.32-64.564-1.196 9.764-1.166 7.936-1.166 6.101 0-30.114-8.109-58.335-22.262-82.597-16.905-28.105-43.77-49.753-75.738-60.004-3.312-3.295-29.531-9.742-57.257-9.742-0.753 0-1.506 0.005-2.257 0.014-33.323 0.287-64.983 7.583-93.569 20.485z" p-id="17666"></path></svg>