<?xml version="1.0" standalone="no"?><!DOCTYPE svg PUBLIC "-//W3C//DTD SVG 1.1//EN" "http://www.w3.org/Graphics/SVG/1.1/DTD/svg11.dtd"><svg t="1505185350738" class="icon" style="" viewBox="0 0 1024 1024" version="1.1" xmlns="http://www.w3.org/2000/svg" p-id="16027" xmlns:xlink="http://www.w3.org/1999/xlink" width="32" height="32"><defs><style type="text/css"></style></defs><path d="M541.047464 80.042667 541.047464 31.163733C541.047464 13.9264 527.223464 0 510.088531 0c-17.134933 0-30.958933 13.9264-30.958933 31.163733L479.129597 80.213333C236.373331 97.245867 43.861331 302.1824 43.861331 551.560533 43.861331 812.066133 253.883731 1024 511.999997 1024c258.082133 0 468.138667-211.933867 468.138667-472.439467C980.138664 300.885333 785.715197 95.232 541.047464 80.042667L541.047464 80.042667zM511.999997 961.604267c-224.0512 0-406.3232-183.978667-406.3232-410.043733 0-226.065067 182.272-410.043733 406.3232-410.043733 224.0512 0 406.3232 183.978667 406.3232 410.043733C918.323197 777.6256 736.051197 961.604267 511.999997 961.604267L511.999997 961.604267zM353.348264 834.696533c-100.864-57.787733-163.566933-166.263467-163.566933-283.136 0-8.6016-6.894933-15.633067-15.428267-15.633067-8.4992 0-15.428267 6.997333-15.428267 15.633067 0 128.1024 68.7104 246.9888 179.268267 310.272 2.389333 1.399467 5.0176 2.013867 7.611733 2.013867 5.393067 0 10.615467-2.798933 13.4144-7.918933C363.349331 848.520533 360.755197 838.997333 353.348264 834.696533L353.348264 834.696533zM437.589331 877.4656c-6.007467-1.604267-11.912533-3.310933-17.8176-5.2224-8.226133-2.594133-16.827733 1.911467-19.421867 10.103467-2.594133 8.226133 1.911467 17.032533 10.001067 19.626667 6.417067 2.116267 12.936533 3.925333 19.524267 5.597867 1.297067 0.4096 2.594133 0.512 3.8912 0.512 6.894933 0 13.1072-4.7104 14.916267-11.707733C450.901331 888.081067 445.883731 879.581867 437.589331 877.4656L437.589331 877.4656zM910.813864 242.8928c6.007467 6.109867 13.9264 9.1136 21.845333 9.1136 7.918933 0 15.837867-3.106133 21.947733-9.216 12.014933-12.219733 12.014933-31.9488-0.1024-44.066133l-80.213333-80.827733c-12.117333-12.219733-31.6416-12.117333-43.656533 0.1024-12.014933 12.219733-12.014933 31.9488 0.1024 44.066133L910.813864 242.8928 910.813864 242.8928zM541.047464 545.757867 541.047464 296.3456c0-17.237333-13.824-31.163733-30.958933-31.163733-17.134933 0-30.958933 13.9264-30.958933 31.163733l0 262.826667c0 8.6016 4.4032 16.827733 10.615467 22.6304l90.453333 85.333333c6.007467 5.700267 13.6192 8.4992 21.230933 8.4992 8.226133 0 15.940267-3.310933 22.050133-9.8304 11.707733-12.526933 10.717867-32.256-1.706667-44.066133L541.047464 545.757867 541.047464 545.757867zM541.047464 545.757867" p-id="16028"></path></svg>