<?xml version="1.0" standalone="no"?><!DOCTYPE svg PUBLIC "-//W3C//DTD SVG 1.1//EN" "http://www.w3.org/Graphics/SVG/1.1/DTD/svg11.dtd"><svg t="1505185215512" class="icon" style="" viewBox="0 0 1024 1024" version="1.1" xmlns="http://www.w3.org/2000/svg" p-id="14506" xmlns:xlink="http://www.w3.org/1999/xlink" width="32" height="32"><defs><style type="text/css"></style></defs><path d="M896 0 128 0C57.28 0 0 57.28 0 128l0 768c0 70.72 57.28 128 128 128l768 0c70.72 0 128-57.28 128-128L1024 128C1024 57.28 966.72 0 896 0zM783.616 376.256l-316.8 316.8c-6.272 6.272-14.464 9.344-22.656 9.344-8.192 0-16.448-3.072-22.656-9.344L240.384 512c-12.48-12.48-12.48-32.768 0-45.248 12.48-12.48 32.768-12.48 45.248 0l158.464 112.256 294.208-248c12.48-12.48 32.768-12.48 45.248 0S796.096 363.712 783.616 376.256z" p-id="14507"></path></svg>