<?xml version="1.0" standalone="no"?><!DOCTYPE svg PUBLIC "-//W3C//DTD SVG 1.1//EN" "http://www.w3.org/Graphics/SVG/1.1/DTD/svg11.dtd"><svg t="1505185580473" class="icon" style="" viewBox="0 0 1024 1024" version="1.1" xmlns="http://www.w3.org/2000/svg" p-id="17899" xmlns:xlink="http://www.w3.org/1999/xlink" width="32" height="32"><defs><style type="text/css"></style></defs><path d="M944.130731 98.645333h-82.397867c-1.365333 0-2.6624-0.341333-4.130133-0.341333s-2.798933 0.341333-4.1984 0.341333l-283.306667 0.341334V46.762667A46.557867 46.557867 0 0 0 523.983531 0a110.592 110.592 0 0 0-11.093334 0.682667c-3.822933-0.341333-7.509333-0.682667-11.946666-0.682667a46.114133 46.114133 0 0 0-45.568 46.762667l0.2048 52.224h-276.48a49.902933 49.902933 0 0 0-10.478934-1.365334 50.926933 50.926933 0 0 0-10.615466 1.365334l-81.408 0.341333A35.6352 35.6352 0 0 0 33.965397 135.509333a38.434133 38.434133 0 0 0 42.632534 39.936H129.538731l0.375466 758.784a89.088 89.088 0 0 0 87.4496 89.429334h45.568V1024l501.248-0.341333h45.533867a88.507733 88.507733 0 0 0 86.152533-93.525334L895.490731 175.104h48.7424a40.96 40.96 0 0 0 45.568-40.277333 38.263467 38.263467 0 0 0-45.6704-36.181334z m-125.371734 753.322667c0.3072 61.781333-11.1616 84.309333-51.643733 91.136l-517.768533 0.341333a50.312533 50.312533 0 0 1-42.632534-47.445333L206.338731 175.445333l612.386133-0.341333 0.375467 768zM398.065664 255.658667a38.673067 38.673067 0 0 0-38.263467 39.253333V826.026667a38.2976 38.2976 0 1 0 76.561067 0V294.912a38.7072 38.7072 0 0 0-38.2976-39.253333z m229.717333 0a38.673067 38.673067 0 0 0-38.2976 39.253333V826.026667a38.2976 38.2976 0 1 0 76.561067 0V294.912A38.673067 38.673067 0 0 0 627.885397 255.658667z" p-id="17900"></path></svg>