<?xml version="1.0" standalone="no"?><!DOCTYPE svg PUBLIC "-//W3C//DTD SVG 1.1//EN" "http://www.w3.org/Graphics/SVG/1.1/DTD/svg11.dtd"><svg t="1505181464108" class="icon" style="" viewBox="0 0 1024 1024" version="1.1" xmlns="http://www.w3.org/2000/svg" p-id="10850" xmlns:xlink="http://www.w3.org/1999/xlink" width="32" height="32"><defs><style type="text/css"></style></defs><path d="M234.666667 554.666667h128a21.333333 21.333333 0 0 0 0-42.666667h-128a21.333333 21.333333 0 0 0 0 42.666667z m612.48 178.261333l-73.472-73.472c22.741333-29.013333 36.906667-65.066667 36.906666-104.832a170.666667 170.666667 0 1 0-170.666666 170.666667c39.808 0 75.861333-14.165333 104.832-36.906667l73.472 73.429333a20.48 20.48 0 0 0 28.928-28.885333z m-115.754667-88.917333c-0.384 0.341333-0.853333 0.426667-1.237333 0.853333-0.341333 0.384-0.512 0.853333-0.853334 1.237333a128 128 0 1 1 2.090667-2.090666zM234.666667 298.666667h384a21.333333 21.333333 0 0 0 0-42.666667h-384a21.333333 21.333333 0 0 0 0 42.666667z m170.666666 85.333333h-170.666666a21.333333 21.333333 0 0 0 0 42.666667h170.666666a21.333333 21.333333 0 0 0 0-42.666667z m0 256h-170.666666a21.333333 21.333333 0 0 0 0 42.666667h170.666666a21.333333 21.333333 0 0 0 0-42.666667z" p-id="10851"></path></svg>