<?xml version="1.0" standalone="no"?><!DOCTYPE svg PUBLIC "-//W3C//DTD SVG 1.1//EN" "http://www.w3.org/Graphics/SVG/1.1/DTD/svg11.dtd"><svg t="1505182456145" class="icon" style="" viewBox="0 0 1024 1024" version="1.1" xmlns="http://www.w3.org/2000/svg" p-id="13917" xmlns:xlink="http://www.w3.org/1999/xlink" width="32" height="32"><defs><style type="text/css"></style></defs><path d="M328 174.4c108.8 0 198.4 89.6 198.4 198.4s-89.6 198.4-198.4 198.4S129.6 481.6 129.6 372.8s88-198.4 198.4-198.4m0-32c-126.4 0-230.4 102.4-230.4 230.4s102.4 230.4 230.4 230.4 230.4-102.4 230.4-230.4S454.4 142.4 328 142.4z" fill="" p-id="13918"></path><path d="M636.8 880h-32c0-152-124.8-276.8-276.8-276.8S51.2 726.4 51.2 880h-32c0-169.6 139.2-308.8 308.8-308.8S636.8 708.8 636.8 880zM652.8 284.8h363.2v32H652.8zM652.8 488h363.2v32H652.8zM652.8 683.2h363.2v32H652.8z" fill="" p-id="13919"></path></svg>