<?xml version="1.0" standalone="no"?><!DOCTYPE svg PUBLIC "-//W3C//DTD SVG 1.1//EN" "http://www.w3.org/Graphics/SVG/1.1/DTD/svg11.dtd"><svg t="1505890156940" class="icon" style="" viewBox="0 0 1024 1024" version="1.1" xmlns="http://www.w3.org/2000/svg" p-id="3764" xmlns:xlink="http://www.w3.org/1999/xlink" width="200" height="200"><defs><style type="text/css"></style></defs><path d="M512 29.36115105a482.63884895 482.63884895 0 1 0 0 965.2776979 482.63884895 482.63884895 0 0 0 0-965.2776979m63.70832806 745.67702162c-22.52314628 17.21411894-47.4058608 31.10339197-73.84374389 41.29243539a90.62884999 90.62884999 0 0 1-45.3680518 5.52353297 28.95833093 28.95833093 0 0 1-24.13194245-19.30555396c-11.36882675-33.78471942-1.0725313-129.18633191 30.88888633-286.15121141a35.92978046 35.92978046 0 0 0-0.26813322-18.39390228c-1.9305554-5.36265335-7.45408835-6.54243825-16.62422649-3.43209796a120.49883262 120.49883262 0 0 0-32.55130852 18.23302266c-25.579859 22.14776105-49.87268107 45.79706464-72.66396055 70.78703119l-38.39660228-2.46682027a691.51421695 691.51421695 0 0 1 117.76387913-110.63155A408.09796059 408.09796059 0 0 1 521.65277699 415.47223021c12.49498405-4.93364209 25.90161821-7.29320875 39.36187998-6.97144952 7.72222158-0.58989246 15.01543033 3.75385718 18.07214304 10.88618632a529.83020256 529.83020256 0 0 1-15.71257638 116.36959018c-21.45061498 114.06364797-28.85107734 180.93594234-22.20138708 200.61688155a11.79783799 11.79783799 0 0 0 8.68749928 7.72222159 20.48533728 20.48533728 0 0 0 12.81674332 0c16.19521522-5.57716057 52.28587532-36.46604688 108.32560779-92.77391259l35.01813034 5.30902733a1213.40769229 1213.40769229 0 0 1-130.31248922 118.62190324m26.81326991-510.95366142c-12.87036929 14.58641905-29.4945958 25.41897937-48.04937928 31.37152517a82.04860433 82.04860433 0 0 1-41.02430215 4.45100326 26.81326991 26.81326991 0 0 1-22.89853152-17.05323935 38.3429747 38.3429747 0 0 1 11.79783799-38.4502283c13.13850252-14.37191187 29.86998261-24.98996654 48.53201813-30.6743807 13.24575455-5.04089412 27.61766797-6.70331787 41.72144663-4.82638848 9.97453621 0.53626486 18.76928909 6.8105699 22.46952027 16.08796164a40.27353009 40.27353009 0 0 1-12.60223765 39.25462636" p-id="3765"></path></svg>