<?xml version="1.0" standalone="no"?><!DOCTYPE svg PUBLIC "-//W3C//DTD SVG 1.1//EN" "http://www.w3.org/Graphics/SVG/1.1/DTD/svg11.dtd"><svg t="1505184371234" class="icon" style="" viewBox="0 0 1024 1024" version="1.1" xmlns="http://www.w3.org/2000/svg" p-id="14389" xmlns:xlink="http://www.w3.org/1999/xlink" width="32" height="32"><defs><style type="text/css"></style></defs><path d="M448 768h128v-128h-128v128M256 576h128v-128H256v128m0 191.975619h128v-128H256v128M896 0H768v64a64 64 0 0 1-128 0V0h-256v64a64 64 0 0 1-128 0V0H127.926857A128 128 0 0 0 0 128v768A127.975619 127.975619 0 0 0 127.926857 1024h768A127.975619 127.975619 0 0 0 1024 895.975619v-768A128 128 0 0 0 896 0m0 831.975619a64 64 0 0 1-64 64H192a64 64 0 0 1-64-64V384a64 64 0 0 1 64-64h640a64 64 0 0 1 64 64v447.975619m-256-256h128v-128h-128v128m-192 0h128v-128h-128v128M640 768h128v-128h-128v128m0 0z" p-id="14390"></path></svg>