<?xml version="1.0" standalone="no"?><!DOCTYPE svg PUBLIC "-//W3C//DTD SVG 1.1//EN" "http://www.w3.org/Graphics/SVG/1.1/DTD/svg11.dtd"><svg t="1505181164868" class="icon" style="" viewBox="0 0 1024 1024" version="1.1" xmlns="http://www.w3.org/2000/svg" p-id="8510" xmlns:xlink="http://www.w3.org/1999/xlink" width="32" height="32"><defs><style type="text/css"></style></defs><path d="M828.356 284.81c0-45.524-45.3-45.524-45.3-45.524H239.18s-45.302 0-45.302 45.524v45.528h634.477V284.81zM692.373 148.23H329.834s-45.298 0-45.298 45.528h453.165c0-45.528-45.359-45.528-45.359-45.528h0.031z m226.58 182.107l-26.802-26.945v72.472H130.086v-72.472l-26.802 26.945c-26.806 26.945-46.04 34.2-35.198 91.112 10.697 56.678 62.743 367.627 70.423 409.681 8.51 46.153 55.401 45.528 55.401 45.528h634.474s46.89 0.624 55.402-45.528c7.74-42.054 59.725-353.004 70.48-409.681 10.784-56.913-8.423-64.137-35.283-91.112h-0.03z m-226.58 245.845s0 45.528-45.359 45.528H375.162c-45.297 0-45.297-45.528-45.297-45.528V485.13h63.455v72.842h235.516v-72.842h63.563v91.052h-0.026z m0 0" p-id="8511"></path></svg>