<?xml version="1.0" standalone="no"?><!DOCTYPE svg PUBLIC "-//W3C//DTD SVG 1.1//EN" "http://www.w3.org/Graphics/SVG/1.1/DTD/svg11.dtd"><svg t="1505181174005" class="icon" style="" viewBox="0 0 1024 1024" version="1.1" xmlns="http://www.w3.org/2000/svg" p-id="8627" xmlns:xlink="http://www.w3.org/1999/xlink" width="32" height="32"><defs><style type="text/css"></style></defs><path d="M596.7514533996583 766.2551326751709H427.2477741241455c-31.2026309967041 0-56.5012264251709 25.298595428466797-56.5012264251709 56.5012264251709H201.2436408996582v56.5012264251709h621.5119457244873v-56.5012264251709H653.2526798248291c0-31.2026309967041-25.298595428466797-56.5012264251709-56.5012264251709-56.5012264251709zM851.0065860748291 144.7424144744873H172.9934139251709C141.7907829284668 144.7424144744873 116.4921875 170.0410099029541 116.4921875 201.2436408996582v452.00903892517096C116.4921875 684.4553108215332 141.7907829284668 709.75390625 172.9934139251709 709.75390625h678.0131721496583c31.2026309967041 0 56.5012264251709-25.298595428466797 56.5012264251709-56.5012264251709V201.2436408996582c0-31.2026309967041-25.298595428466797-56.5012264251709-56.5012264251709-56.5012264251709zM342.4963207244873 625.0024528503417H257.7448673248291v-395.5078125h84.7514533996582v395.5078125z m141.2526798248291 0H398.9975471496582V370.74732017517084h84.7514533996582v254.25513267517084z m141.2526798248291 0H540.2502269744873V285.9958667755127h84.7514533996582v339.00658607482916z m141.25345230102536 0H681.5029067993164V342.4963207244873h84.7514533996582v282.50613212585444z" p-id="8628"></path></svg>