<?xml version="1.0" standalone="no"?><!DOCTYPE svg PUBLIC "-//W3C//DTD SVG 1.1//EN" "http://www.w3.org/Graphics/SVG/1.1/DTD/svg11.dtd"><svg t="1505185565758" class="icon" style="" viewBox="0 0 1024 1024" version="1.1" xmlns="http://www.w3.org/2000/svg" p-id="17548" xmlns:xlink="http://www.w3.org/1999/xlink" width="32" height="32"><defs><style type="text/css"></style></defs><path d="M716.736 213.12a355.712 355.712 0 1 0 0 503.04 355.744 355.744 0 0 0 0-503.04zM136.256 793.6a465.216 465.216 0 1 1 657.92 0 465.664 465.664 0 0 1-657.92 0z m869.12 211.2a64 64 0 0 1-89.92 0l-89.92-89.92a63.584 63.584 0 1 1 89.92-89.92l89.92 89.92a64 64 0 0 1 0 89.92z" p-id="17549"></path></svg>