<?xml version="1.0" standalone="no"?><!DOCTYPE svg PUBLIC "-//W3C//DTD SVG 1.1//EN" "http://www.w3.org/Graphics/SVG/1.1/DTD/svg11.dtd"><svg t="1505197276910" class="icon" style="" viewBox="0 0 1049 1024" version="1.1" xmlns="http://www.w3.org/2000/svg" p-id="3736" xmlns:xlink="http://www.w3.org/1999/xlink" width="32.78125" height="32"><defs><style type="text/css"></style></defs><path d="M880 183.6288v726.2976a112.1536 112.1536 0 0 1-110.08 114.0736H133.12C59.4688 1024 0 986.6496 0 819.2h99.84l2.56-245.1968a24.8576 24.8576 0 0 0 22.6304 14.8992h99.84v25.6a50.6624 50.6624 0 0 0 50.048 51.2h25.0112v76.8a25.0112 25.0112 0 1 0 50.0224 0v-76.8h25.0112a50.6624 50.6624 0 0 0 50.048-51.2v-25.6H750.08a25.6 25.6 0 0 0 0-51.2H424.96v-25.6a50.6368 50.6368 0 0 0-50.0224-51.2h-24.8832v-460.8h593.0752c58.88 0 106.7008 49.5104 106.7008 183.7312h-169.6v-0.1536zM299.8016 0.0512v460.8h-25.0368a50.6624 50.6624 0 0 0-50.048 51.2v25.6h-99.84a24.7552 24.7552 0 0 0-22.3232 14.6176l4.3776-438.144a112.1792 112.1792 0 0 1 110.08-114.0992h82.9952z" p-id="3737"></path></svg>