<?xml version="1.0" standalone="no"?><!DOCTYPE svg PUBLIC "-//W3C//DTD SVG 1.1//EN" "http://www.w3.org/Graphics/SVG/1.1/DTD/svg11.dtd"><svg t="1505181885561" class="icon" style="" viewBox="0 0 1024 1024" version="1.1" xmlns="http://www.w3.org/2000/svg" p-id="12722" xmlns:xlink="http://www.w3.org/1999/xlink" width="32" height="32"><defs><style type="text/css"></style></defs><path d="M512 230.741c-110.496 0-200.391 89.896-200.391 200.391 0 110.496 89.895 200.391 200.391 200.391s200.391-89.895 200.391-200.39c0-110.496-89.895-200.392-200.391-200.392z m0 339.384c-76.64 0-138.993-62.352-138.993-138.993 0-76.64 62.352-138.992 138.993-138.992 76.642 0 138.993 62.352 138.993 138.992 0 76.64-62.352 138.993-138.993 138.993z" p-id="12723"></path><path d="M849.86 288.391c-18.47-43.668-44.906-82.88-78.572-116.546-33.665-33.666-72.878-60.102-116.547-78.572C609.514 74.143 561.489 64.445 512 64.445c-49.49 0-97.514 9.7-142.741 28.828-43.669 18.47-82.88 44.906-116.546 78.572-33.666 33.666-60.102 72.878-78.572 116.546-19.13 45.227-28.828 93.252-28.828 142.741 0 67.58 18.862 137.485 56.064 207.774 29.13 55.037 69.56 110.492 120.166 164.822 85.469 91.76 169.895 148.362 173.448 150.727a30.659 30.659 0 0 0 17.011 5.144c5.887 0 11.776-1.69 16.904-5.072 3.554-2.345 88.024-58.465 173.525-150 50.625-54.196 91.067-109.635 120.205-164.775 37.196-70.39 56.055-140.58 56.055-208.62-0.003-49.489-9.702-97.514-28.831-142.74z m-81.184 322.053c-26.45 50.214-63.532 101.088-110.22 151.212-58.675 62.993-118.097 109.059-146.374 129.652C445.65 842.495 206.71 651.549 206.71 431.132c0-81.545 31.755-158.211 89.417-215.872C353.79 157.597 430.454 125.842 512 125.842c81.545 0 158.21 31.755 215.873 89.418 57.662 57.66 89.417 134.326 89.417 215.872 0 57.741-16.356 118.071-48.614 179.312z" p-id="12724"></path></svg>