<?xml version="1.0" standalone="no"?><!DOCTYPE svg PUBLIC "-//W3C//DTD SVG 1.1//EN" "http://www.w3.org/Graphics/SVG/1.1/DTD/svg11.dtd"><svg t="1505181316894" class="icon" style="" viewBox="0 0 1024 1024" version="1.1" xmlns="http://www.w3.org/2000/svg" p-id="9563" xmlns:xlink="http://www.w3.org/1999/xlink" width="32" height="32"><defs><style type="text/css"></style></defs><path d="M546.722909 698.181818c-16.453818 0-16.290909-34.909091 0.186182-34.909091 41.728-9.122909 69.934545-33.466182 93.067636-69.818182a149.527273 149.527273 0 0 0 23.272728-116.386909c-12.939636-61.090909-56.529455-101.399273-116.340364-116.363636-7.563636-1.908364-10.821818-16.290909-8.936727-24.017455a14.126545 14.126545 0 0 1 17.035636-10.472727 188.299636 188.299636 0 0 1 138.868364 145.035637 191.557818 191.557818 0 0 1-25.832728 143.546181 189.486545 189.486545 0 0 1-52.619636 54.690909h10.472727a14.312727 14.312727 0 0 1 0 28.625455l-79.127272 0.069818h-0.046546z m-74.379636 0a13.568 13.568 0 0 1-3.351273-0.442182 188.299636 188.299636 0 0 1-138.868364-145.035636 191.604364 191.604364 0 0 1 25.832728-143.546182 188.881455 188.881455 0 0 1 52.666181-54.690909h-10.472727a14.289455 14.289455 0 0 1 0-28.625454h79.127273c7.214545 0.093091 13.242182 5.608727 13.963636 12.823272a25.530182 25.530182 0 0 1-14.126545 22.039273c-41.728 9.099636-69.934545 33.442909-93.090909 69.818182a149.527273 149.527273 0 0 0-23.249455 116.363636c12.939636 61.067636 56.506182 101.399273 116.340364 116.363637 15.220364 0 8.983273 34.909091-4.770909 34.90909z m97.838545-197.841454H453.818182c-17.687273 0-17.687273-34.909091 0-34.909091H570.181818c17.687273 0 17.687273 34.909091 0 34.909091z m0 58.181818H453.818182c-17.687273 0-17.687273-34.909091 0-34.909091H570.181818c17.687273 0 17.687273 34.909091 0 34.909091z" p-id="9564"></path></svg>