<?xml version="1.0" standalone="no"?><!DOCTYPE svg PUBLIC "-//W3C//DTD SVG 1.1//EN" "http://www.w3.org/Graphics/SVG/1.1/DTD/svg11.dtd"><svg t="1505185592082" class="icon" style="" viewBox="0 0 1024 1024" version="1.1" xmlns="http://www.w3.org/2000/svg" p-id="18133" xmlns:xlink="http://www.w3.org/1999/xlink" width="32" height="32"><defs><style type="text/css"></style></defs><path d="M870.4 0H153.60000000000002A153.6 153.6 0 0 0 0 153.60000000000002v716.8A153.965714 153.965714 0 0 0 153.60000000000002 1024h716.8a153.965714 153.965714 0 0 0 153.6-153.6V153.60000000000002A153.6 153.6 0 0 0 870.4 0z m-96.29257099999995 71.314286v360.594285H250.00228599999997V71.31428599999998h523.9954279999998z m178.614857 799.085714a82.102857 82.102857 0 0 1-82.322286 81.92H153.60000000000002a82.102857 82.102857 0 0 1-82.322286-81.92V153.60000000000002A82.395429 82.395429 0 0 1 153.60000000000002 71.31428599999998h24.905143v396.434285a35.474286 35.474286 0 0 0 35.69371399999999 35.474286H809.6914289999997a35.474286 35.474286 0 0 0 35.69371399999999-35.474286V71.31428599999998h25.014857a82.395429 82.395429 0 0 1 82.322286 82.28571399999998v716.8zM649.508571 355.474286a35.80342899999998 35.80342899999998 0 0 0 35.693715-35.84V172.61714300000006a35.69371399999999 35.69371399999999 0 0 0-71.387429 0v147.01714299999998a35.80342899999998 35.80342899999998 0 0 0 35.583999999999996 35.84zM256 658.285714h512a36.571428999999995 36.571428999999995 0 0 1 0 73.142857H256a36.571428999999995 36.571428999999995 0 0 1 0-73.142857z" p-id="18134"></path></svg>