<?xml version="1.0" standalone="no"?><!DOCTYPE svg PUBLIC "-//W3C//DTD SVG 1.1//EN" "http://www.w3.org/Graphics/SVG/1.1/DTD/svg11.dtd"><svg t="1505181973186" class="icon" style="" viewBox="0 0 1024 1024" version="1.1" xmlns="http://www.w3.org/2000/svg" p-id="13434" xmlns:xlink="http://www.w3.org/1999/xlink" width="32" height="32"><defs><style type="text/css"></style></defs><path d="M730.24 576.64L603.52 508.8 729.6 440.96c20.48-10.88 28.8-37.12 17.28-57.6-10.88-20.48-37.12-28.8-57.6-17.28L556.16 437.12v-151.68a42.88 42.88 0 0 0-85.76 0v151.68l-133.76-71.68c-20.48-10.88-46.72-3.2-57.6 17.28-10.88 20.48-3.2 46.72 17.28 57.6L422.4 508.16 296.32 576c-20.48 10.88-28.8 37.12-17.28 57.6 10.88 20.48 37.12 28.8 57.6 17.28l133.76-71.68v151.68a42.88 42.88 0 0 0 85.76 0V580.48l133.76 71.68c20.48 10.88 46.72 3.2 57.6-17.28 10.88-21.12 3.2-47.36-17.28-58.24z" fill="#d81e06" p-id="13435"></path></svg>