<?xml version="1.0" standalone="no"?><!DOCTYPE svg PUBLIC "-//W3C//DTD SVG 1.1//EN" "http://www.w3.org/Graphics/SVG/1.1/DTD/svg11.dtd"><svg t="1505181307957" class="icon" style="" viewBox="0 0 1024 1024" version="1.1" xmlns="http://www.w3.org/2000/svg" p-id="9446" xmlns:xlink="http://www.w3.org/1999/xlink" width="32" height="32"><defs><style type="text/css"></style></defs><path d="M356.266667 499.285333a142.976 142.976 0 1 1 142.933333-142.976l-2.133333 142.976h-140.8zM247.210667 356.309333a109.056 109.056 0 0 0 109.056 109.056l109.013333 2.133334V356.309333a109.056 109.056 0 1 0-218.069333 0z m109.056 202.325334a109.056 109.056 0 1 0 109.013333 109.056v-109.056H356.266667z m0-33.92l142.933333 2.133333v140.842667a142.976 142.976 0 1 1-142.933333-142.976z m202.24-168.405334l-2.133334 109.056h111.189334a109.056 109.056 0 1 0-109.056-109.056z m109.056 142.976l-142.933334-2.133333V356.309333a142.976 142.976 0 1 1 142.933334 142.976z m-109.056 168.106667a109.098667 109.098667 0 0 0 157.354666 98.048 16.981333 16.981333 0 0 1 14.933334 30.549333 142.933333 142.933333 0 0 1-206.208-128.298666l2.133333-142.976h140.842667c78.933333 0 142.976 64 142.976 142.933333 0.426667 13.610667-1.109333 27.178667-4.522667 40.362667a17.493333 17.493333 0 1 1-33.749333-9.472 109.098667 109.098667 0 0 0-104.704-139.946667H558.506667v108.8z" p-id="9447"></path></svg>