<?xml version="1.0" standalone="no"?><!DOCTYPE svg PUBLIC "-//W3C//DTD SVG 1.1//EN" "http://www.w3.org/Graphics/SVG/1.1/DTD/svg11.dtd"><svg t="1505185465601" class="icon" style="" viewBox="0 0 1162 1024" version="1.1" xmlns="http://www.w3.org/2000/svg" p-id="17197" xmlns:xlink="http://www.w3.org/1999/xlink" width="36.3125" height="32"><defs><style type="text/css"></style></defs><path d="M290.0686 456.067766a456.648402 456.648402 0 0 1-30.858362-166.690504 440.8456 440.8456 0 0 1 67.750018-238.010682 140.924464 140.924464 0 0 0-23.967122-2.407783h-1.605189c-103.064161 0-186.533953 101.818756-186.533953 227.383229a253.287647 253.287647 0 0 0 54.438025 160.518832A275.096068 275.096068 0 0 0 0 684.641048c0 42.703544 44.668516 91.32968 113.055074 125.260041v-0.581189a445.578138 445.578138 0 0 1 177.124229-353.224458z m702.961782-19.372962a253.370674 253.370674 0 0 0 54.438025-160.518832c0-125.564473-83.497468-227.355553-186.533953-227.355553h-1.605189a143.913436 143.913436 0 0 0-23.967122 2.407782 440.624194 440.624194 0 0 1 67.750017 238.010683 456.648402 456.648402 0 0 1-30.830686 166.662828 445.578138 445.578138 0 0 1 176.985851 353.252134v0.581189c68.441909-34.041063 113.055074-82.584172 113.055074-125.287716a275.096068 275.096068 0 0 0-169.264341-248.001596z m-239.228411 57.067212a322.891934 322.891934 0 0 0 69.189152-204.274051C823.184852 129.522646 716.799613 0.000554 585.755359 0.000554a9.63113 9.63113 0 0 0-2.020323 0.193729c-0.83027 0-1.66054 0.166054-2.463134 0.19373s-1.66054-0.166054-2.463134-0.19373A15.443019 15.443019 0 0 0 576.733094 0.000554c-131.12728 0-237.429493 129.522092-237.429494 289.404384a323.085663 323.085663 0 0 0 69.189152 204.274051 349.986405 349.986405 0 0 0-215.399667 315.751613c0 95.674759 175.851148 214.569398 383.556982 214.569398 1.522161 0 2.988971-0.166054 4.511132-0.166054s3.071998 0.166054 4.621836 0.166054c207.733509 0 383.556982-119.005341 383.556982-214.569398a350.014081 350.014081 0 0 0-215.399668-315.751613z" p-id="17198"></path></svg>