<?xml version="1.0" standalone="no"?><!DOCTYPE svg PUBLIC "-//W3C//DTD SVG 1.1//EN" "http://www.w3.org/Graphics/SVG/1.1/DTD/svg11.dtd"><svg t="1505181741821" class="icon" style="" viewBox="0 0 1024 1024" version="1.1" xmlns="http://www.w3.org/2000/svg" p-id="11903" xmlns:xlink="http://www.w3.org/1999/xlink" width="32" height="32"><defs><style type="text/css"></style></defs><path d="M473.6 665.6h76.8v-76.8h-76.8v76.8zM358.4 550.4h76.8v-76.8H358.4v76.8z m0 115.2h76.8v-76.8H358.4v76.8zM742.4 204.8H665.6v38.4a38.4 38.4 0 1 1-76.8 0V204.8h-153.6v38.4a38.4 38.4 0 0 1-76.8 0V204.8H281.565867A76.8 76.8 0 0 0 204.8 281.6v460.8A76.8 76.8 0 0 0 281.565867 819.2h460.8A76.8 76.8 0 0 0 819.2 742.4V281.6A76.8 76.8 0 0 0 742.4 204.8z m0 499.2c0 21.162667-17.2032 38.4-38.4 38.4H320a38.4 38.4 0 0 1-38.4-38.4V435.2c0-21.1968 17.2032-38.4 38.4-38.4h384c21.1968 0 38.4 17.2032 38.4 38.4v268.8z m-153.6-153.6h76.8v-76.8h-76.8v76.8z m-115.2 0h76.8v-76.8h-76.8v76.8zM588.8 665.6h76.8v-76.8h-76.8v76.8z" p-id="11904"></path></svg>