<?xml version="1.0" standalone="no"?><!DOCTYPE svg PUBLIC "-//W3C//DTD SVG 1.1//EN" "http://www.w3.org/Graphics/SVG/1.1/DTD/svg11.dtd"><svg t="1505181882370" class="icon" style="" viewBox="0 0 1024 1024" version="1.1" xmlns="http://www.w3.org/2000/svg" p-id="12605" xmlns:xlink="http://www.w3.org/1999/xlink" width="32" height="32"><defs><style type="text/css"></style></defs><path d="M807.385 19.692h-590.77c-108.307 0-196.923 88.616-196.923 196.923v590.77c0 108.307 88.616 196.923 196.923 196.923h590.77c108.307 0 196.923-88.616 196.923-196.923v-590.77c0-108.307-88.616-196.923-196.923-196.923zM632.123 236.308c9.846-9.846 21.662-19.693 31.508-27.57 7.877-5.907 17.723-5.907 27.569-11.815 43.323 0 64.985 27.57 82.708 53.17 7.877 11.815 17.723 33.476 11.815 53.169-5.908 19.692-27.57 37.415-43.323 49.23l-86.646-86.646c-5.908-5.908-29.539-23.63-23.63-29.538zM261.908 673.477c9.846-35.446 17.723-72.862 35.446-100.43 7.877-13.785 19.692-23.632 31.508-35.447l43.323-43.323c70.892-70.892 141.784-141.785 212.677-210.708 37.415 37.416 74.83 74.831 114.215 112.246L539.569 555.323c-5.907 11.815-35.446 35.446-47.261 47.262-27.57 27.569-51.2 59.077-84.677 80.738-15.754 9.846-37.416 15.754-55.139 21.662-21.661 7.877-43.323 13.784-66.954 19.692-11.815 1.97-23.63 0-25.6-7.877-7.876-13.785-1.969-33.477 1.97-43.323z m484.43 153.6H277.662c-23.631 0-41.354-17.723-41.354-41.354s17.723-41.354 41.354-41.354h468.676c23.631 0 41.354 17.723 41.354 41.354s-17.723 41.354-41.354 41.354z" p-id="12606"></path></svg>