<?xml version="1.0" standalone="no"?><!DOCTYPE svg PUBLIC "-//W3C//DTD SVG 1.1//EN" "http://www.w3.org/Graphics/SVG/1.1/DTD/svg11.dtd"><svg t="1505185562011" class="icon" style="" viewBox="0 0 1024 1024" version="1.1" xmlns="http://www.w3.org/2000/svg" p-id="17431" xmlns:xlink="http://www.w3.org/1999/xlink" width="32" height="32"><defs><style type="text/css"></style></defs><path d="M987.280112 477.03654a75.284348 75.284348 0 0 0-15.724872-46.077532c-2.267307-3.43753-365.938491-390.976388-365.938492-390.976388A125.45766 125.45766 0 0 0 513.583583 0.243796V0c-0.487593 0-1.072704 0.170658-1.682195 0.170658S510.706785 0 510.097294 0v0.268176a125.896494 125.896494 0 0 0-92.081924 39.738824S54.466084 427.643376 52.198777 430.983388A75.357487 75.357487 0 0 0 36.473905 477.060919v6.314329a95.933908 95.933908 0 0 0 96.007047 95.78763h22.990006v343.557976a112.999661 112.999661 0 0 0 224.78034 0V579.138499h263.129522v343.557976a112.999661 112.999661 0 0 0 224.78034 0V579.138499h22.990006A95.958288 95.958288 0 0 0 987.280112 483.350868v-6.314328z m-143.181663-346.190978l0.609491 0.755769 72.310031 76.186395a26.817611 26.817611 0 0 0 37.88597 1.072704 1.218982 1.218982 0 0 1 0.365695-0.292556l0.950806-0.902047a21.527228 21.527228 0 0 0 6.314329-11.994786A28.987399 28.987399 0 0 0 962.900465 192.160372a33.887708 33.887708 0 0 0 0.609491-3.925123l8.337839-141.401948a35.17983 35.17983 0 0 0-9.532441-26.2325l-0.365695-0.292556-0.365695-0.390074a35.13107 35.13107 0 0 0-25.720527-10.946461l-142.108958 0.365695c-1.560297 0-2.608622 0.146278-3.925123 0.268176a28.158492 28.158492 0 0 0-3.340012 0.316935 21.454089 21.454089 0 0 0-12.506758 5.680458l-0.950806 0.950806s-0.243796 0.146278-0.243797 0.195037a26.817611 26.817611 0 0 0-1.072704 37.812831l72.310031 76.210775z" p-id="17432"></path></svg>