<?xml version="1.0" standalone="no"?><!DOCTYPE svg PUBLIC "-//W3C//DTD SVG 1.1//EN" "http://www.w3.org/Graphics/SVG/1.1/DTD/svg11.dtd"><svg t="1505181723302" class="icon" style="" viewBox="0 0 1024 1024" version="1.1" xmlns="http://www.w3.org/2000/svg" p-id="11786" xmlns:xlink="http://www.w3.org/1999/xlink" width="32" height="32"><defs><style type="text/css"></style></defs><path d="M662.853818 692.177455l-29.207273-29.277091a20.689455 20.689455 0 1 1 28.625455-29.882182l0.581818 0.605091 29.277091 29.277091a20.712727 20.712727 0 0 1 0 29.253818 20.852364 20.852364 0 0 1-29.277091 0.023273zM376.017455 376.040727a171.450182 171.450182 0 1 1 242.432 242.455273 171.450182 171.450182 0 0 1-242.432-242.455273z m29.323636 29.300364a130.001455 130.001455 0 1 0 183.877818 183.854545 130.001455 130.001455 0 0 0-183.901091-183.854545z" p-id="11787"></path></svg>