<?xml version="1.0" standalone="no"?><!DOCTYPE svg PUBLIC "-//W3C//DTD SVG 1.1//EN" "http://www.w3.org/Graphics/SVG/1.1/DTD/svg11.dtd"><svg t="1505182473003" class="icon" style="" viewBox="0 0 1024 1024" version="1.1" xmlns="http://www.w3.org/2000/svg" p-id="14154" xmlns:xlink="http://www.w3.org/1999/xlink" width="32" height="32"><defs><style type="text/css"></style></defs><path d="M929.88416 106.042368 92.023808 106.042368c-50.601984 0-92.024832 41.201664-92.024832 91.56096l0 102.294528 1022.019584 0 0-102.294528C1022.019584 147.244032 980.55168 106.042368 929.88416 106.042368z" p-id="14155"></path><path d="M0 822.295552c0 50.357248 41.422848 91.583488 92.024832 91.583488l837.860352 0c50.666496 0 92.135424-41.22624 92.135424-91.583488L1022.020608 437.238784 0 437.238784 0 822.295552zM836.009984 686.948352l75.757568 0 0 86.171648-75.757568 0L836.009984 686.948352zM738.59584 686.948352l75.712512 0 0 86.171648-75.712512 0L738.59584 686.948352zM645.22752 686.948352l75.78112 0 0 86.171648-75.78112 0L645.22752 686.948352z" p-id="14156"></path></svg>