<?xml version="1.0" standalone="no"?><!DOCTYPE svg PUBLIC "-//W3C//DTD SVG 1.1//EN" "http://www.w3.org/Graphics/SVG/1.1/DTD/svg11.dtd"><svg t="1505181444883" class="icon" style="" viewBox="0 0 1024 1024" version="1.1" xmlns="http://www.w3.org/2000/svg" p-id="10382" xmlns:xlink="http://www.w3.org/1999/xlink" width="32" height="32"><defs><style type="text/css"></style></defs><path d="M689.810286 724.370286l-34.450286-34.523429a24.393143 24.393143 0 1 1 33.755429-35.218286l0.694857 0.731429 34.486857 34.486857c9.508571 9.508571 9.508571 24.941714 0 34.486857a24.576 24.576 0 0 1-34.486857 0zM351.744 351.780571a202.057143 202.057143 0 1 1 285.769143 285.696 202.057143 202.057143 0 0 1-285.769143-285.696z m34.523429 34.486858a153.234286 153.234286 0 1 0 216.649142 216.685714 153.234286 153.234286 0 0 0-216.649142-216.685714z" p-id="10383"></path></svg>