<?xml version="1.0" standalone="no"?><!DOCTYPE svg PUBLIC "-//W3C//DTD SVG 1.1//EN" "http://www.w3.org/Graphics/SVG/1.1/DTD/svg11.dtd"><svg t="1505181977375" class="icon" style="" viewBox="0 0 1024 1024" version="1.1" xmlns="http://www.w3.org/2000/svg" p-id="13551" xmlns:xlink="http://www.w3.org/1999/xlink" width="32" height="32"><defs><style type="text/css"></style></defs><path d="M461.553654 503.745313 304.4518 357.64783C288.646901 342.967238 288.606231 319.118138 304.360645 304.395728 320.112253 289.726898 345.756298 289.58315 361.558391 304.206242L510.932216 443.397436 660.178423 303.597273C675.932837 288.928443 701.524993 288.891853 717.325684 303.513638 733.129179 318.19423 733.545691 342.39094 717.792679 357.11727L560.413652 503.770492 717.515506 649.867974C733.320404 664.548566 733.361072 688.397667 717.605259 703.121383 701.853651 717.788907 676.211008 717.932655 660.407512 703.309562L511.03509 564.118369 361.78748 703.918531C346.034469 718.587362 320.442313 718.625259 304.640219 704.002166 288.836722 689.321575 288.421616 665.124865 304.174626 650.398536L461.553654 503.745313ZM512 1024C794.769788 1024 1024 794.769788 1024 512 1024 229.230208 794.769788 0 512 0 229.230208 0 0 229.230208 0 512 0 794.769788 229.230208 1024 512 1024Z" p-id="13552"></path></svg>