<?xml version="1.0" standalone="no"?><!DOCTYPE svg PUBLIC "-//W3C//DTD SVG 1.1//EN" "http://www.w3.org/Graphics/SVG/1.1/DTD/svg11.dtd"><svg t="1505181321224" class="icon" style="" viewBox="0 0 1024 1024" version="1.1" xmlns="http://www.w3.org/2000/svg" p-id="9680" xmlns:xlink="http://www.w3.org/1999/xlink" width="32" height="32"><defs><style type="text/css"></style></defs><path d="M512.238933 204.8c79.086933 0 159.402667 68.130133 159.402667 117.077333v105.540267c0 44.782933-21.265067 124.996267-68.642133 163.0208a30.72 30.72 0 0 0 6.144 51.746133l186.094933 87.790934c8.977067 3.9936 17.1008 9.693867 23.9616 16.725333v60.996267c0 6.314667-5.12 11.4688-11.4688 11.502933H216.302933A11.537067 11.537067 0 0 1 204.8 807.697067v-60.962134c7.031467-7.168 15.394133-12.936533 24.610133-16.930133l185.480534-87.552a30.72 30.72 0 0 0 6.144-51.712c-47.377067-38.058667-68.608-118.237867-68.608-163.0208V321.9456c0-48.9472 80.315733-117.077333 159.607466-117.077333h0.238934L512.238933 204.8z" p-id="9681"></path></svg>