<?xml version="1.0" standalone="no"?><!DOCTYPE svg PUBLIC "-//W3C//DTD SVG 1.1//EN" "http://www.w3.org/Graphics/SVG/1.1/DTD/svg11.dtd"><svg t="1505181961706" class="icon" style="" viewBox="0 0 1024 1024" version="1.1" xmlns="http://www.w3.org/2000/svg" p-id="13083" xmlns:xlink="http://www.w3.org/1999/xlink" width="32" height="32"><defs><style type="text/css"></style></defs><path d="M512 0a512 512 0 1 0 512 512A512 512 0 0 0 512 0zM101.052632 548.298105a36.594526 36.594526 0 1 1 36.648421-36.594526 36.648421 36.648421 0 0 1-36.648421 36.594526zM512 64.512a36.594526 36.594526 0 1 1-36.648421 36.594526A36.648421 36.648421 0 0 1 512 64.512z m0 898.371368a36.594526 36.594526 0 1 1 36.648421-36.594526A36.648421 36.648421 0 0 1 512 962.883368z m300.463158-670.989473l-197.254737 184.32a110.160842 110.160842 0 1 1-204.8-0.512l-135.814737-122.799158a43.385263 43.385263 0 1 1 61.44-61.305263l135.814737 122.906947a110.484211 110.484211 0 0 1 82.458947 0.188632l196.985264-184.077474a43.304421 43.304421 0 0 1 61.170526 61.170526z m110.48421 256.808421a36.594526 36.594526 0 1 1 36.648421-36.594527 36.648421 36.648421 0 0 1-36.648421 36.486737z" p-id="13084"></path></svg>