<?xml version="1.0" standalone="no"?><!DOCTYPE svg PUBLIC "-//W3C//DTD SVG 1.1//EN" "http://www.w3.org/Graphics/SVG/1.1/DTD/svg11.dtd"><svg t="1505181986107" class="icon" style="" viewBox="0 0 1024 1024" version="1.1" xmlns="http://www.w3.org/2000/svg" p-id="13800" xmlns:xlink="http://www.w3.org/1999/xlink" width="32" height="32"><defs><style type="text/css"></style></defs><path d="M81.604923 535.670154c-8.192 0-16.108308-4.253538-20.48-11.815385-6.537846-11.303385-2.638769-25.757538 8.664615-32.256l91.017846-52.499692c4.686769-2.717538 9.885538-3.268923 14.887385-2.599385-9.255385-20.086154-14.729846-41.629538-16.777846-63.842462C154.860308 375.886769 149.976615 378.092308 144.384 378.092308L39.384615 378.092308C26.308923 378.092308 15.753846 367.537231 15.753846 354.461538S26.308923 330.830769 39.384615 330.830769l104.999385 0c5.750154 0 10.870154 2.323692 14.966154 5.750154 2.087385-22.843077 7.561846-44.544 16.817231-64.433231C174.907077 272.344615 173.804308 273.092923 172.504615 273.092923c-4.017231 0-8.073846-1.024-11.815385-3.190154L69.750154 217.403077C58.446769 210.865231 54.587077 196.411077 61.124923 185.107692c6.537846-11.303385 20.992-15.163077 32.295385-8.625231l90.978462 52.539077c4.804923 2.756923 7.916308 7.089231 9.806769 11.894154 12.918154-18.156308 28.750769-34.028308 46.946462-46.907077C236.228923 192.118154 231.778462 189.243077 228.942769 184.359385L176.482462 93.420308c-6.537846-11.303385-2.638769-25.757538 8.664615-32.256 11.264-6.616615 25.757538-2.678154 32.256 8.664615l52.460308 90.939077c2.796308 4.844308 3.308308 10.161231 2.56 15.281231 19.810462-9.137231 41.432615-14.572308 64.118154-16.659692C333.115077 155.254154 330.830769 150.173538 330.830769 144.384L330.830769 39.384615c0-13.075692 10.594462-23.630769 23.630769-23.630769S378.092308 26.308923 378.092308 39.384615l0 104.999385c0 5.513846-2.205538 10.358154-5.356308 14.375385 22.291692 2.087385 43.795692 7.876923 63.724308 17.092923-0.748308-5.041231-0.196923-10.358154 2.56-15.123692l52.499692-90.939077c6.537846-11.342769 21.070769-15.202462 32.256-8.664615 11.303385 6.537846 15.163077 20.992 8.664615 32.256l-52.499692 90.939077c-2.796308 4.883692-7.286154 7.758769-12.169846 9.649231 18.038154 12.721231 33.988923 28.396308 47.064615 46.788923 1.890462-4.726154 5.001846-9.019077 9.767385-11.776l90.939077-52.539077c11.224615-6.577231 25.718154-2.638769 32.256 8.625231 6.537846 11.303385 2.638769 25.757538-8.664615 32.295385L548.233846 269.942154c-3.741538 2.166154-7.798154 3.190154-11.815385 3.190154-7.325538 0-14.139077-3.859692-18.707692-10.043077l-60.140308 33.792C436.617846 259.505231 397.115077 236.307692 354.461538 236.307692 289.319385 236.307692 236.307692 289.319385 236.307692 354.461538c0 23.906462 7.128615 46.946462 20.558769 66.56l-61.282462 42.023385c-1.024 6.852923-4.726154 13.193846-11.185231 16.935385l-91.017846 52.499692C89.678769 534.646154 85.582769 535.670154 81.604923 535.670154zM1024 669.538462c0 108.583385-88.339692 196.923077-196.923077 196.923077L236.307692 866.461538c-86.882462 0-157.538462-70.656-157.538462-157.538462 0-88.182154 73.728-159.665231 161.476923-157.499077C258.520615 461.627077 338.116923 393.846154 433.230769 393.846154c10.279385 0 20.519385 0.866462 30.838154 2.638769C505.422769 323.032615 584.113231 275.692308 669.538462 275.692308c122.564923 0 223.665231 93.814154 235.204923 213.385846C976.226462 519.68 1024 590.099692 1024 669.538462zM945.230769 669.538462c0-53.720615-36.627692-100.627692-89.048615-114.018462l-30.326154-7.719385 1.339077-38.675692C827.076923 425.117538 756.420923 354.461538 669.538462 354.461538c-64.827077 0-123.904 41.117538-146.904615 102.281846l-13.627077 36.194462-36.470154-12.996923C458.633846 475.017846 445.755077 472.615385 433.230769 472.615385c-65.142154 0-118.153846 53.011692-118.153846 118.153846l0.708923 5.080615 3.623385 59.707077-56.241231-20.243692C253.518769 631.847385 244.736 630.153846 236.307692 630.153846c-43.441231 0-78.769231 35.328-78.769231 78.769231s35.328 78.769231 78.769231 78.769231l590.769231 0C892.219077 787.692308 945.230769 734.680615 945.230769 669.538462z" p-id="13801"></path></svg>