<?xml version="1.0" standalone="no"?><!DOCTYPE svg PUBLIC "-//W3C//DTD SVG 1.1//EN" "http://www.w3.org/Graphics/SVG/1.1/DTD/svg11.dtd"><svg t="1505181556625" class="icon" style="" viewBox="0 0 1024 1024" version="1.1" xmlns="http://www.w3.org/2000/svg" p-id="11318" xmlns:xlink="http://www.w3.org/1999/xlink" width="32" height="32"><defs><style type="text/css"></style></defs><path d="M977.7253436448196 576.9551455795157c-6.032985611939644 39.968529679100136-42.73364759360683 72.5969263727081-81.74695504178214 72.5969263727081h-480.77867888245555c-38.96303158614457 0-75.21122111981317-32.72894694477256-80.5906323085281-72.74775101300656L280.76468082549223 175.05775357317083c-5.379412661611808-40.06907993026475 21.618197951818093-67.0164146816639 59.97793097676869-59.97793244966557L958.4197896866128 228.9524245488662c38.309458635816725 7.038483704895209 64.80432093921728 45.498766981010434 58.82160971641152 85.46729666011058l-39.516055758204665 262.58569875967294z m-99.04151428697475 116.4366223104351H291.8251539564158L214.2510144538576 92.40585068959786c-2.362919855641986-18.249781476117416-16.289061152237036-31.773724713847745-31.92454935414623-31.974823743280105a36.449288563100964 36.449288563100964 0 0 0-5.429687050745679-0.4021995317616021H36.42876354193665c-19.305553958206858 0-35.09186680041455 14.780814749252126-35.09186680041455 32.82949719593718 0 18.04868244668506 15.786312842207689 32.82949719593718 35.09186680041455 32.82949719593718h118.34706677228473l77.62441536458903 601.1367403677547c2.513744495940477 19.104454928774494 17.495658274624958 32.980321836235674 33.98581845629436 31.92454935414623l2.463470106806606 0.10055025116461999h609.8342951159333c19.255279569072986 0 35.09186680041455-14.730540360118255 35.09186680041455-32.67867255563869 0-18.04868244668506-15.83658723134156-32.779221333906435-35.14214118954842-32.779221333906435z m-412.0529172954775 179.33049731490584c0 40.1696287085325-31.42179957122001 72.69747662387269-70.23400798996296 72.69747662387269-38.761932556712196 0-70.18373212793222-32.5278479153402-70.18373212793222-72.69747662387269 0-40.1696287085325 31.42179957122001-72.74775101300656 70.18373212793222-72.74775248590345 38.81220694584607 0 70.23400798996296 32.57812230447407 70.23400798996296 72.74775248590345z m380.8824911428239 0c0 40.1696287085325-31.42179957122001 72.69747662387269-70.18373212793222 72.69747662387269-38.81220694584607 0-70.28428237909684-32.5278479153402-70.28428237909684-72.69747662387269 0-40.1696287085325 31.47207543325077-72.74775101300656 70.28428237909684-72.74775248590345 38.711658167578335 0 70.18373212793222 32.57812230447407 70.18373212793222 72.74775248590345z" p-id="11319"></path></svg>