<?xml version="1.0" standalone="no"?><!DOCTYPE svg PUBLIC "-//W3C//DTD SVG 1.1//EN" "http://www.w3.org/Graphics/SVG/1.1/DTD/svg11.dtd"><svg t="1505181203351" class="icon" style="" viewBox="0 0 1024 1024" version="1.1" xmlns="http://www.w3.org/2000/svg" p-id="9212" xmlns:xlink="http://www.w3.org/1999/xlink" width="32" height="32"><defs><style type="text/css"></style></defs><path d="M530.688 211.2a20.522667 20.522667 0 0 0-19.882667-19.2 20.522667 20.522667 0 0 0-19.882666 19.2v30.72c-155.562667 10.666667-278.912 138.666667-278.912 294.698667 0 162.858667 134.528 295.381333 300.074666 295.381333 165.546667 0 299.946667-132.522667 299.946667-295.381333 0-156.757333-124.586667-285.354667-281.344-294.826667V211.2z m-279.082667 325.418667c0-141.354667 116.736-256.426667 260.48-256.426667 143.786667 0 260.309333 115.072 260.309334 256.426667 0 141.312-116.736 256.384-260.266667 256.384-143.786667 0-260.522667-115.072-260.522667-256.426667z m544-193.024a18.901333 18.901333 0 0 0 5.845334-13.781334 18.901333 18.901333 0 0 0-5.845334-13.781333l-51.370666-50.517333a19.968 19.968 0 0 0-27.989334 0 18.901333 18.901333 0 0 0-5.845333 13.781333c0 5.248 2.133333 10.282667 5.845333 13.781333l51.370667 50.517334c7.936 7.68 20.053333 7.68 27.989333 0z m-264.917333 33.408a20.522667 20.522667 0 0 0-19.882667-19.2 20.522667 20.522667 0 0 0-19.882666 19.2v164.352a19.626667 19.626667 0 0 0 6.784 14.165333l57.984 53.333333a19.968 19.968 0 0 0 13.610666 5.333334 19.370667 19.370667 0 0 0 12.970667-33.706667l-51.584-47.530667V377.002667z" p-id="9213"></path></svg>