<?xml version="1.0" standalone="no"?><!DOCTYPE svg PUBLIC "-//W3C//DTD SVG 1.1//EN" "http://www.w3.org/Graphics/SVG/1.1/DTD/svg11.dtd"><svg t="1505181958331" class="icon" style="" viewBox="0 0 1024 1024" version="1.1" xmlns="http://www.w3.org/2000/svg" p-id="12962" xmlns:xlink="http://www.w3.org/1999/xlink" width="32" height="32"><defs><style type="text/css"></style></defs><path d="M934.051171 327.451288 843.67564 237.161097 701.498458 368.414701 701.498458 850.758897 966.821902 850.758897 966.821902 205.329111Z" p-id="12963"></path><path d="M460.667722 494.121177 379.338278 441.722144l0 409.036753 265.323444 0L644.661722 420.899075 576.218685 483.965664C558.809234 500.180348 535.767314 509.141095 512.04267 509.141095 493.779815 509.141095 476.199683 503.935328 460.667722 494.121177z" p-id="12964"></path><path d="M322.501542 405.196433 255.423952 362.014168 57.178098 534.487207 57.178098 850.758897 322.501542 850.758897Z" p-id="12965"></path><path d="M57.178098 916.55638l909.643804 0 0 94.727894-909.643804 0 0-94.727894Z" p-id="12966"></path><path d="M120.074006 414.498542l130.229519-113.929494 241.172098 155.23427C497.790816 459.728977 504.874073 461.777148 512.04267 461.777148c9.216768 0 18.433536-3.413618 25.687474-10.070173l307.566964-284.013001L904.608717 227.005584l57.43412-214.289857L747.752979 70.149846l43.950329 43.950329-283.84232 261.995166L267.200933 221.373114c-14.251854-8.960747-32.770731-7.76598-45.486457 3.413618L70.064505 357.405784C54.447204 371.230936 52.740395 395.126261 66.565547 410.914243 80.305359 426.702225 104.286024 428.238353 120.074006 414.498542z" p-id="12967"></path></svg>