<?xml version="1.0" standalone="no"?><!DOCTYPE svg PUBLIC "-//W3C//DTD SVG 1.1//EN" "http://www.w3.org/Graphics/SVG/1.1/DTD/svg11.dtd"><svg t="1505181460286" class="icon" style="" viewBox="0 0 1024 1024" version="1.1" xmlns="http://www.w3.org/2000/svg" p-id="10733" xmlns:xlink="http://www.w3.org/1999/xlink" width="32" height="32"><defs><style type="text/css"></style></defs><path d="M631.466667 735.274667H312.874667A102.826667 102.826667 0 0 1 209.066667 631.466667V312.874667A102.826667 102.826667 0 0 1 312.874667 209.066667H631.466667a102.826667 102.826667 0 0 1 103.808 103.808V631.466667a102.826667 102.826667 0 0 1-103.808 103.808z m-318.592-477.866667c-29.482667 0-55.466667 25.984-55.466667 55.466667V631.466667c0 29.482667 25.984 55.466667 55.466667 55.466666H631.466667c29.482667 0 55.466667-25.984 55.466666-55.466666V312.874667c0-29.482667-25.984-55.466667-55.466666-55.466667H312.874667zM711.125333 814.933333H392.533333a23.04 23.04 0 0 1-24.192-24.192 23.04 23.04 0 0 1 24.192-24.149333h318.592c29.482667 0 55.466667-25.984 55.466667-55.466667V392.533333a23.04 23.04 0 0 1 24.149333-24.192 23.04 23.04 0 0 1 24.192 24.192v318.592a102.826667 102.826667 0 0 1-103.808 103.808z" p-id="10734"></path></svg>