<?xml version="1.0" standalone="no"?><!DOCTYPE svg PUBLIC "-//W3C//DTD SVG 1.1//EN" "http://www.w3.org/Graphics/SVG/1.1/DTD/svg11.dtd"><svg t="1505185558632" class="icon" style="" viewBox="0 0 1024 1024" version="1.1" xmlns="http://www.w3.org/2000/svg" p-id="17314" xmlns:xlink="http://www.w3.org/1999/xlink" width="32" height="32"><defs><style type="text/css"></style></defs><path d="M512.380708 0.026256c131.8038 0 265.708059 113.529807 265.708059 195.132637v175.913438c0 74.64506-35.497756 208.286762-114.448758 271.694367a51.224943 51.224943 0 0 0 10.265993 86.223841l310.10651 146.349478A127.970462 127.970462 0 0 1 1023.973744 903.22361v101.583446a19.2192 19.2192 0 0 1-19.087921 19.2192H19.166688a19.245455 19.245455 0 0 1-19.166688-19.2192V903.22361a130.01841 130.01841 0 0 1 41.011461-28.198662l309.108792-145.903131a51.198687 51.198687 0 0 0 10.239738-86.197584c-78.924746-63.433861-114.369991-197.075562-114.369991-271.720623v-175.913438c0-81.602831 133.904259-195.132638 266.049384-195.132638h0.393836z" p-id="17315"></path></svg>