<?xml version="1.0" standalone="no"?><!DOCTYPE svg PUBLIC "-//W3C//DTD SVG 1.1//EN" "http://www.w3.org/Graphics/SVG/1.1/DTD/svg11.dtd"><svg t="1505181002409" class="icon" style="" viewBox="0 0 1241 1024" version="1.1" xmlns="http://www.w3.org/2000/svg" p-id="8042" xmlns:xlink="http://www.w3.org/1999/xlink" width="38.78125" height="32"><defs><style type="text/css"></style></defs><path d="M1038.9784618586305 788.5717978686095a63.62506998181342 63.62506998181342 0 0 1-11.457905021309852 49.20158997774124 62.90614280104636 62.90614280104636 0 0 1-42.68631041049957 26.510445946455l-108.51309615075589 17.523854014277457a62.164748874306675 62.164748874306675 0 0 1-48.30293100178242-11.45790429711342 64.29906439483165 64.29906439483165 0 0 1-26.735110509395604-43.36030554771423L709.1705430895089 237.91838633120062a62.0074831008911 62.0074831008911 0 0 1 1.3479888260364534-25.836450809240343 66.09638234674932 66.09638234674932 0 0 1 10.334580758213997-22.91580931842327 57.49172075092792 57.49172075092792 0 0 1 18.64717755317688-17.299189451336858 82.15991525352 82.15991525352 0 0 1 24.713127994537356-9.660585620999337l107.61443645060062-17.299189451336858a61.063891357183444 61.063891357183444 0 0 1 48.75226012766362 11.907234147191046 66.59064496457577 66.59064496457577 0 0 1 26.06111609637737 43.809634673595426l92.3372309625149 587.9477673679589zM584.7062470376493 141.31252505183215a62.591611978411656 62.591611978411656 0 0 1 46.05628319978714 19.096507403254506 63.9171340584755 63.9171340584755 0 0 1 18.871842116117477 46.50561232566833v609.0662580102683a64.81579303443432 64.81579303443432 0 0 1-64.92812531590462 65.60212045311927h-94.13454891443251a64.81579303443432 64.81579303443432 0 0 1-64.92812531590462-65.60212045311927V206.914644780755A76.38603033721446 76.38603033721446 0 0 1 440.02211931943896 160.40903245508673 49.808184877038 49.808184877038 0 0 1 482.48376589119437 141.31252505183215h102.22248114645481z m0 459.4395048379899a18.714577066898343 18.714577066898343 0 0 0 15.277206212282179-8.537262082099915 37.47408762574195 37.47408762574195 0 0 0 0-41.56298687160015 19.029107889533044 19.029107889533044 0 0 0-15.277206212282179-8.312597519159317h-94.13454891443251a19.36610545814037 19.36610545814037 0 0 0-15.277206212282179 8.312597519159317 37.47408762574195 37.47408762574195 0 0 0 0 41.56298687160015 19.006641867756844 19.006641867756844 0 0 0 15.277206212282179 8.537262082099915h94.13454891443251z m0-115.70236940681936a18.40004696846008 18.40004696846008 0 0 0 15.277206212282179-8.761926645040512 34.37371361553669 34.37371361553669 0 0 0 6.290614280104637-21.34315592944622 33.699719202518466 33.699719202518466 0 0 0-6.290614280104637-21.11849064230919 18.467445757985118 18.467445757985118 0 0 0-15.277206212282179-8.312597519159317h-94.13454891443251a19.36610545814037 19.36610545814037 0 0 0-15.277206212282179 8.312597519159317 32.845992994308475 32.845992994308475 0 0 0-6.290614280104637 21.11849064230919 34.37371361553669 34.37371361553669 0 0 0 6.290614280104637 21.34315592944622 18.714577066898343 18.714577066898343 0 0 0 15.277206212282179 8.761926645040512h94.13454891443251zM300.95461146831514 141.31252505183215a65.57965370714665 65.57965370714665 0 0 1 65.82678501605986 65.60211972892284v609.0662580102683a63.445338186621655 63.445338186621655 0 0 1-19.32117269039154 46.50561232566833 64.86072652637958 64.86072652637958 0 0 1-46.50561232566833 19.096508127450946H207.04472711682314a64.50126221179963 64.50126221179963 0 0 1-46.50561232566833-19.096508127450946A63.445338186621655 63.445338186621655 0 0 1 141.21794282495978 815.9809027910234V206.914644780755A65.57965370714665 65.57965370714665 0 0 1 207.04472711682314 141.31252505183215h93.90988435149193zM210.63936446905132 369.1226265132427a20.01763312518597 20.01763312518597 0 0 0-16.175865188241005 8.312597519159317 32.845992994308475 32.845992994308475 0 0 0-6.290614280104637 21.11849064230919 33.49752066135407 33.49752066135407 0 0 0 6.290614280104637 20.444496229290966 19.658169534802433 19.658169534802433 0 0 0 16.175865188241005 8.537262082099915h86.72061037123204a17.973183864355086 17.973183864355086 0 0 0 15.726535338163375-8.537262082099915 38.61987791061401 38.61987791061401 0 0 0 0-41.56298687160015 18.35511347651482 18.35511347651482 0 0 0-15.726535338163375-8.312597519159317H210.63936446905132z m90.31524699926376 286.2229486584664a18.15291565954685 18.15291565954685 0 0 0 15.72653606235981-8.08793295621872 32.53146217167377 32.53146217167377 0 0 0 6.0659489929676065-19.99516637921333 32.104599067568785 32.104599067568785 0 0 0-6.0659489929676065-20.444496953487395 18.781976580619816 18.781976580619816 0 0 0-15.72653606235981-7.863267669081687H210.63936446905132a19.590770021080967 19.590770021080967 0 0 0-16.175865188241005 7.863267669081687 32.17199858129025 32.17199858129025 0 0 0-6.290614280104637 20.444496953487395 31.295805627107622 31.295805627107622 0 0 0 6.290614280104637 19.99516637921333 19.79296856224537 19.79296856224537 0 0 0 16.175865188241005 8.08793295621872h90.31524699926376z m0-111.88306821584703a18.35511347651482 18.35511347651482 0 0 0 15.72653606235981-8.312597519159317 33.901917743682866 33.901917743682866 0 0 0 6.0659489929676065-20.89382535517216 35.070174774527544 35.070174774527544 0 0 0-6.0659489929676065-21.11849064230919 18.15291565954685 18.15291565954685 0 0 0-15.72653606235981-8.08793295621872H210.63936446905132a19.79296856224537 19.79296856224537 0 0 0-16.175865188241005 8.08793295621872 38.19301480650901 38.19301480650901 0 0 0 0 42.012315997481345 20.01763312518597 20.01763312518597 0 0 0 16.175865188241005 8.312597519159317h90.31524699926376z" p-id="8043"></path></svg>