<?xml version="1.0" standalone="no"?><!DOCTYPE svg PUBLIC "-//W3C//DTD SVG 1.1//EN" "http://www.w3.org/Graphics/SVG/1.1/DTD/svg11.dtd"><svg t="1513131043590" class="icon" style="" viewBox="0 0 1024 1024" version="1.1" xmlns="http://www.w3.org/2000/svg" p-id="4312" xmlns:xlink="http://www.w3.org/1999/xlink" width="200" height="200"><defs><style type="text/css"></style></defs><path d="M512 0C229.376 0 0 229.376 0 512c0 282.624 229.376 512 512 512s512-229.376 512-512C1024 229.376 794.624 0 512 0zM840.704 512c0 30.72-24.576 55.296-55.296 55.296L237.568 567.296c-30.72 0-55.296-24.576-55.296-55.296l0 0c0-30.72 24.576-55.296 55.296-55.296l548.864 0C816.128 456.704 840.704 481.28 840.704 512L840.704 512z" p-id="4313" fill="#ff9b85"></path></svg>