<?xml version="1.0" standalone="no"?><!DOCTYPE svg PUBLIC "-//W3C//DTD SVG 1.1//EN" "http://www.w3.org/Graphics/SVG/1.1/DTD/svg11.dtd"><svg t="1505185439292" class="icon" style="" viewBox="0 0 1137 1024" version="1.1" xmlns="http://www.w3.org/2000/svg" p-id="16846" xmlns:xlink="http://www.w3.org/1999/xlink" width="35.53125" height="32"><defs><style type="text/css"></style></defs><path d="M1114.432831 850.785362L668.056718 71.461704c-54.581099-95.282272-143.833567-95.282272-198.386223 0L23.322825 850.785362C-31.258274 946.067634 13.396403 1024 122.473273 1024H1015.396153c109.105312 0 153.589334-77.932366 99.17889-173.214638zM507.555864 292.744115A79.155392 79.155392 0 0 1 568.849385 266.292619a80.6344 80.6344 0 0 1 61.321964 25.882647 92.182043 92.182043 0 0 1 23.920117 64.84883c0 22.469551-33.306132 186.582598-44.398695 306.040969h-80.207763c-9.727324-119.458371-45.877703-283.571419-45.877703-306.040969a91.328769 91.328769 0 0 1 23.948559-64.279981z m121.506229 567.996111a84.872328 84.872328 0 0 1-120.36853 0A80.74817 80.74817 0 0 1 483.521978 800.726616a85.327408 85.327408 0 1 1 170.654815 0 80.776613 80.776613 0 0 1-25.200027 60.01361z" p-id="16847"></path></svg>