<?xml version="1.0" standalone="no"?><!DOCTYPE svg PUBLIC "-//W3C//DTD SVG 1.1//EN" "http://www.w3.org/Graphics/SVG/1.1/DTD/svg11.dtd"><svg t="1505181562287" class="icon" style="" viewBox="0 0 1024 1024" version="1.1" xmlns="http://www.w3.org/2000/svg" p-id="11435" xmlns:xlink="http://www.w3.org/1999/xlink" width="32" height="32"><defs><style type="text/css"></style></defs><path d="M516.266667 542.976a29.184 29.184 0 0 1-13.184-3.2L238.336 404.48a29.44 29.44 0 0 1-16-26.282667 29.44 29.44 0 0 1 16-26.282666l264.746667-135.381334c8.234667-4.266667 18.090667-4.266667 26.325333 0l264.789333 135.296a29.44 29.44 0 0 1 15.957334 26.282667 29.44 29.44 0 0 1-16 26.282667l-264.704 135.424a29.696 29.696 0 0 1-13.226667 3.157333z m-1.962667-44.8L749.226667 378.026667 518.186667 258.133333 283.306667 378.154667l230.997333 119.978666z m3.882667 180.181333h-3.84L225.28 530.645333a22.058667 22.058667 0 0 1-9.6-29.525333 21.674667 21.674667 0 0 1 29.354667-9.728l269.269333 139.648 273.237333-139.648a21.76 21.76 0 0 1 29.312 9.728 22.144 22.144 0 0 1-9.557333 29.525333l-289.109333 147.712z m0 140.373334h-3.84L225.28 671.018667a22.058667 22.058667 0 0 1-9.6-29.568 21.674667 21.674667 0 0 1 29.354667-9.685334l269.269333 139.648 273.237333-139.648a21.76 21.76 0 0 1 29.312 9.685334 22.144 22.144 0 0 1-9.557333 29.568l-289.109333 147.712z" p-id="11436"></path></svg>