<?xml version="1.0" standalone="no"?><!DOCTYPE svg PUBLIC "-//W3C//DTD SVG 1.1//EN" "http://www.w3.org/Graphics/SVG/1.1/DTD/svg11.dtd"><svg t="1513130775366" class="icon" style="" viewBox="0 0 1024 1024" version="1.1" xmlns="http://www.w3.org/2000/svg" p-id="3922" xmlns:xlink="http://www.w3.org/1999/xlink" width="200" height="200"><defs><style type="text/css"></style></defs><path d="M512 1024C229.248 1024 0 794.752 0 512 0 229.248 229.248 0 512 0 794.752 0 1024 229.248 1024 512 1024 794.752 794.752 1024 512 1024ZM768 448 576 448 576 256C576 220.672 547.328 192 512 192 476.672 192 448 220.672 448 256L448 448 256 448C220.672 448 192 476.672 192 512 192 547.328 220.672 576 256 576L448 576 448 768C448 803.328 476.672 832 512 832 547.328 832 576 803.328 576 768L576 576 768 576C803.328 576 832 547.328 832 512 832 476.672 803.328 448 768 448Z" p-id="3923" fill="#32cd68"></path></svg>