<?xml version="1.0" standalone="no"?><!DOCTYPE svg PUBLIC "-//W3C//DTD SVG 1.1//EN" "http://www.w3.org/Graphics/SVG/1.1/DTD/svg11.dtd"><svg t="1505181859181" class="icon" style="" viewBox="0 0 1024 1024" version="1.1" xmlns="http://www.w3.org/2000/svg" p-id="12371" xmlns:xlink="http://www.w3.org/1999/xlink" width="32" height="32"><defs><style type="text/css"></style></defs><path d="M512 1024C229.24 1024 0 794.76 0 512S229.24 0 512 0s512 229.24 512 512-229.24 512-512 512z m76.8-396.766a38.434 38.434 0 0 0 27.238-65.57l-65.57-65.536V358.4c0-21.265-17.169-38.434-38.434-38.434-21.265 0-38.4 17.169-38.4 38.434v153.737a37.98 37.98 0 0 0 11.264 27.067l76.732 76.834c7.51 7.407 17.34 11.196 27.17 11.196zM512 281.6A230.673 230.673 0 0 1 742.4 512 230.639 230.639 0 0 1 512 742.4 230.639 230.639 0 0 1 281.6 512 230.639 230.639 0 0 1 512 281.6z m0-76.8a307.2 307.2 0 1 0 0 614.4 307.2 307.2 0 0 0 0-614.4z" p-id="12372"></path></svg>