<?xml version="1.0" standalone="no"?><!DOCTYPE svg PUBLIC "-//W3C//DTD SVG 1.1//EN" "http://www.w3.org/Graphics/SVG/1.1/DTD/svg11.dtd"><svg t="1505213178107" class="icon" style="" viewBox="0 0 1024 1024" version="1.1" xmlns="http://www.w3.org/2000/svg" p-id="7294" xmlns:xlink="http://www.w3.org/1999/xlink" width="200" height="200"><defs><style type="text/css"></style></defs><path d="M738.4040959349688 511.7139912346019l-192.19751496170377 305.45676484985063s-18.418927958553507 10.696706375270763-34.20658097326489 10.696708051100098c-15.787653014711383 0-31.346500022601948-10.982715140668791-31.346500022601948-10.982715140668791l-198.26088838700494-302.93989374733366L54.386868580190765 602.0353840555506v415.7415282701802l224.8024505355643-97.1855881080375L516.8049378740428 1026.8147722188496l228.00574301020248-108.45431201410432L969.6131314198096 1026.8147722188496v-424.72218708055084l-231.20903548484068-90.37859390369668z m48.44979134714906-234.4123262836494c0-154.7304404310529-122.98352947755711-280.116437169802-274.62508127529696-280.116437169802-151.6987528804877 0-274.62507959946754 125.38599841457845-274.62507959946754 280.116437169802s274.56787851671965 515.7299979219622 274.56787851671965 515.7299995977913 274.68228235804486-360.9995591667386 274.68228235804486-515.7299995977913z m-394.3481155196388 0c0-65.83908976126486 52.33950184224969-119.26542223070015 116.86295329367883-119.26542223070015 64.63785529275422 0 116.92015437642674 53.426332469435266 116.92015437642674 119.26542223070015 0 65.83908976126486-52.33950184224969 119.26542223070015-116.92015437642674 119.26542223070015-64.52345145142914 0-116.86295329367883-53.426332469435266-116.86295329367883-119.26542223070015z" p-id="7295"></path></svg>