<?xml version="1.0" standalone="no"?><!DOCTYPE svg PUBLIC "-//W3C//DTD SVG 1.1//EN" "http://www.w3.org/Graphics/SVG/1.1/DTD/svg11.dtd"><svg t="1505185249477" class="icon" style="" viewBox="0 0 1024 1024" version="1.1" xmlns="http://www.w3.org/2000/svg" p-id="15325" xmlns:xlink="http://www.w3.org/1999/xlink" width="32" height="32"><defs><style type="text/css"></style></defs><path d="M874.344376 725.136391a443.966178 443.966178 0 0 0 90.34925-270.880437 454.297782 454.297782 0 0 0-908.511907 0 430.832074 430.832074 0 0 0 92.858952 270.880437 31.413096 31.413096 0 0 1 5.019403 7.696418c5.437686 5.10306 10.457089 12.757649 15.476492 17.860708 49.357461 58.810669 170.659695 98.589437 255.571259 226.375067a102.103019 102.103019 0 0 0 170.659695 0c84.911564-125.2341 206.213798-167.564397 255.152976-226.375067 5.437686-5.10306 10.457089-12.757649 15.476492-17.860708zM512.947374 190.988277a263.267677 263.267677 0 1 1-266.028348 263.267677 264.271558 264.271558 0 0 1 266.028348-263.267677z m-136.778726 263.267677a136.778726 136.778726 0 1 0 136.778726-135.482048 135.398391 135.398391 0 0 0-136.778726 135.482048z" p-id="15326"></path></svg>