<?xml version="1.0" standalone="no"?><!DOCTYPE svg PUBLIC "-//W3C//DTD SVG 1.1//EN" "http://www.w3.org/Graphics/SVG/1.1/DTD/svg11.dtd"><svg t="1505875199371" class="icon" style="" viewBox="0 0 1024 1024" version="1.1" xmlns="http://www.w3.org/2000/svg" p-id="3764" xmlns:xlink="http://www.w3.org/1999/xlink" width="200" height="200"><defs><style type="text/css"></style></defs><path d="M512 237.43212095c-207.10569221 0-375.38577089 170.53239329-375.38577089 378.6033648 1.8233018 209.89427329 170.10338046 378.60336321 375.38577089 378.6033632s375.38577089-168.7090915 375.38577089-378.6033632c0-209.94789929-168.28007868-378.60336321-375.38577089-378.6033648m190.48146572 346.74920076l-72.12769413 69.33911463 16.6242265 97.43941992c5.57716057 31.85416403-12.92399533 46.86959435-44.3491481 31.85416403L512 735.99805194l-90.62884999 46.81596835c-29.54822338 15.01543033-49.87268107 1.87692938-44.3491481-31.85416403l16.6242265-97.43941992-72.12769413-69.33911463c-24.02468884-22.52314628-16.6242265-45.04629259 16.62422651-50.62345313l99.90624172-15.01543033 44.34914809-88.05477772c14.8009247-30.03086223 38.82561354-30.03086223 55.50346761 0l44.3491481 88.05477772 99.85261415 15.01543033c37.00231174 5.63078656 46.22607591 28.10030684 20.37808526 50.62345313M861.48415266 29.36115105H639.63116175c-11.10069353 0-22.14776105 7.50771595-24.02468884 18.7692891l-68.42746294 131.17051331s146.07869161 9.38464377 233.00731042 89.98533152l101.72954355-202.44018334c3.70023117-1.87692938 5.52353297-7.50771595 5.52353452-13.1385025A25.04359413 25.04359413 0 0 0 861.48415266 29.36115105M478.75154544 181.17788283l-68.42746295-131.2241409c-3.70023117-11.26157314-12.87036929-18.71566151-24.02468884-18.71566149H164.33914913a25.04359413 25.04359413 0 0 0-25.90161822 24.34644806c0 5.63078656 1.87692938 9.38464377 5.57716057 15.01543034l101.67591749 202.4401849C332.61922781 188.63197119 478.75154544 181.12425525 478.75154544 181.12425525" p-id="3765"></path></svg>