<?xml version="1.0" standalone="no"?><!DOCTYPE svg PUBLIC "-//W3C//DTD SVG 1.1//EN" "http://www.w3.org/Graphics/SVG/1.1/DTD/svg11.dtd"><svg t="1505181209217" class="icon" style="" viewBox="0 0 1024 1024" version="1.1" xmlns="http://www.w3.org/2000/svg" p-id="9329" xmlns:xlink="http://www.w3.org/1999/xlink" width="32" height="32"><defs><style type="text/css"></style></defs><path d="M261.802667 644.949333v135.594667c0 1.621333 1.365333 2.986667 2.986666 2.986667h135.594667a2.986667 2.986667 0 0 0 2.986667-2.986667v-135.594667a2.986667 2.986667 0 0 0-2.986667-2.986666H264.789333a2.986667 2.986667 0 0 0-2.986666 2.986666z m437.461333-146.517333a51.285333 51.285333 0 0 1 51.285333 51.456v43.562667h29.952a51.456 51.456 0 0 1 51.498667 51.498666v135.552a51.456 51.456 0 0 1-51.456 51.498667h-135.594667a51.456 51.456 0 0 1-51.498666-51.456v-135.594667a51.456 51.456 0 0 1 51.498666-51.498666h57.130667v-43.690667a2.816 2.816 0 0 0-2.816-2.858667h-339.626667c-1.450667 0-2.773333 1.365333-2.773333 2.986667v43.562667h43.52a51.456 51.456 0 0 1 51.498667 51.498666v135.552A51.456 51.456 0 0 1 400.384 832H264.832A51.456 51.456 0 0 1 213.333333 780.544v-135.594667a51.456 51.456 0 0 1 51.456-51.498666h43.562667v-43.52c0-28.373333 22.912-51.413333 51.328-51.498667h138.752V403.413333h48.469333v95.018667h152.32z m-57.344 146.517333v135.594667c0 1.621333 1.365333 2.986667 2.986667 2.986667h135.637333a2.986667 2.986667 0 0 0 2.986667-2.986667v-135.594667a2.986667 2.986667 0 0 0-2.986667-2.986666h-135.594667a2.986667 2.986667 0 0 0-2.986666 2.986666z m-238.506667-380.16A51.456 51.456 0 0 1 454.826667 213.333333h135.594666a51.456 51.456 0 0 1 51.456 51.456v135.594667a51.456 51.456 0 0 1-51.456 51.498667h-135.594666a51.456 51.456 0 0 1-51.456-51.498667V264.789333z m48.469334 135.594667c0 1.706667 1.322667 2.986667 2.986666 2.986667h135.594667a2.986667 2.986667 0 0 0 2.986667-2.986667V264.789333a2.986667 2.986667 0 0 0-2.986667-2.986666h-135.594667a2.986667 2.986667 0 0 0-2.986666 2.986666v135.594667z" p-id="9330"></path></svg>