<?xml version="1.0" standalone="no"?><!DOCTYPE svg PUBLIC "-//W3C//DTD SVG 1.1//EN" "http://www.w3.org/Graphics/SVG/1.1/DTD/svg11.dtd"><svg t="1505181981465" class="icon" style="" viewBox="0 0 1024 1024" version="1.1" xmlns="http://www.w3.org/2000/svg" p-id="13673" xmlns:xlink="http://www.w3.org/1999/xlink" width="32" height="32"><defs><style type="text/css"></style></defs><path d="M799.033 835.59h-375.69c-70.554 0-127.955-57.401-127.955-127.956 0-69.324 55.41-125.949 124.27-127.905 1.75-98.507 82.427-178.107 181.344-178.107 41.34 0 80.276 13.55 112.604 39.186 26.463 20.987 46.646 49.18 58.049 80.7a158.918 158.918 0 0 1 27.38-2.37c87.245 0 158.225 70.98 158.225 158.226S886.28 835.59 799.033 835.59zM166.947 700.666c-4.799 0-9.596-1.83-13.259-5.492-7.322-7.323-7.322-19.195 0-26.518l64.1-64.099c7.322-7.323 19.194-7.323 26.517 0s7.323 19.195 0 26.518l-64.099 64.099a18.692 18.692 0 0 1-13.259 5.492zM398.174 552.62c-62.583-5.776-90.046 52.342-96.851 52.342-2.884 0-5.81-0.667-8.552-2.075-43.965-22.583-68.07-59.713-72.898-108.846-7.796-79.337 50.407-150.224 129.744-158.021 27.964-2.747 55.875 2.623 80.712 15.53 24.176 12.566 39.223 25.902 53.025 49.323 5.257 8.922 2.012 12.907-6.91 18.165 0.001-0.001-85.01 44.04-78.27 133.582z m-222.031-48.603h-90.65c-10.357 0-18.752-8.395-18.752-18.75 0-10.357 8.395-18.752 18.751-18.752h90.65c10.357 0 18.752 8.395 18.752 18.751-0.001 10.356-8.396 18.751-18.751 18.751z m320.004-132.55c-4.8 0-9.598-1.831-13.259-5.493-7.323-7.323-7.323-19.195 0-26.518l64.099-64.099c7.322-7.321 19.195-7.322 26.518 0s7.323 19.196 0 26.518l-64.1 64.1a18.693 18.693 0 0 1-13.258 5.491z m-265.1 0c-4.8 0-9.597-1.831-13.26-5.493l-64.1-64.099c-7.322-7.322-7.322-19.195 0-26.518 7.323-7.322 19.195-7.322 26.518 0l64.1 64.1c7.322 7.322 7.322 19.194 0 26.517a18.688 18.688 0 0 1-13.259 5.492z m132.55-54.904c-10.356 0-18.751-8.395-18.751-18.751v-90.65c0-10.357 8.395-18.752 18.751-18.752s18.751 8.395 18.751 18.751v90.65c0 10.357-8.395 18.752-18.75 18.752z" fill="" p-id="13674"></path></svg>