<?xml version="1.0" standalone="no"?><!DOCTYPE svg PUBLIC "-//W3C//DTD SVG 1.1//EN" "http://www.w3.org/Graphics/SVG/1.1/DTD/svg11.dtd"><svg t="1505181193087" class="icon" style="" viewBox="0 0 1024 1024" version="1.1" xmlns="http://www.w3.org/2000/svg" p-id="9095" xmlns:xlink="http://www.w3.org/1999/xlink" width="32" height="32"><defs><style type="text/css"></style></defs><path d="M873.2283651735597 933.2900885990921V89.27987092557669C863.8472954322949 19.951481600104785 815.5119096023002 1.418149800226331 780.8477149395644-2.8147722188493844h-529.9732082958462c-71.61645442116794 8.008230348680772-97.64320179750845 52.51110676632264-106.39505292522888 91.57982837220734l0.9152273789419568 844.5822335284819L-2.8147722188493844 934.7201290744233v89.52056928333195L1026.8147722188496 1026.8147722188496l-3.603703405531946-92.20904530992193-149.98270363975817-1.3156383098357276zM305.5020752574934 184.97821579970548l142.31768313922328-0.45761201364164167-0.2860087653980286 151.75595396323558-142.43208698054838 0.4576136894709784 0.40041260672310747-151.75595563906487z m143.347312683661 249.1131486711753l-0.3432098481458997 151.64155179773974-142.37488589780048 0.45761201364164167 0.40041260672310747-151.64155012191046 142.31768313922328-0.4576136894709784z m1.0868306271855703 453.1514033939127l-145.63537777935719 0.4004109308937708 1.315636634006391-202.43660932333293 145.12056468296768-1.3728393925835989-0.8008235376168782 203.40903778502275z m272.27981342102356-51.6530821459579l-142.43208698054838 0.4004109308937708 0.4004109308937708-151.75595396323558 142.31768481505262-0.40041260672310747-0.3432098481458997 151.75595563906487z m0-249.85676945021495l-142.43208698054838 0.45761201364164167 0.4004109308937708-151.64155012191046 142.31768481505262-0.4576136894709784-0.3432098481458997 151.64155179773974z m0-249.45635851932116l-142.43208698054838 0.4576136894709784 0.4004109308937708-151.75595563906487 142.31768481505262-0.45761201364164167-0.3432098481458997 151.75595396323558z" p-id="9096"></path></svg>