<?xml version="1.0" standalone="no"?><!DOCTYPE svg PUBLIC "-//W3C//DTD SVG 1.1//EN" "http://www.w3.org/Graphics/SVG/1.1/DTD/svg11.dtd"><svg t="1505185337988" class="icon" style="" viewBox="0 0 1285 1024" version="1.1" xmlns="http://www.w3.org/2000/svg" p-id="15559" xmlns:xlink="http://www.w3.org/1999/xlink" width="40.15625" height="32"><defs><style type="text/css"></style></defs><path d="M47.627907 404.837209h47.627907a47.627907 47.627907 0 0 1 47.627907 47.627907v119.069768a47.627907 47.627907 0 0 1-47.627907 47.627907H47.627907a47.627907 47.627907 0 0 1-47.627907-47.627907v-119.069768a47.627907 47.627907 0 0 1 47.627907-47.627907z m285.767442-214.325581h47.627907a47.627907 47.627907 0 0 1 47.627907 47.627907v547.72093a47.627907 47.627907 0 0 1-47.627907 47.627907h-47.627907a47.627907 47.627907 0 0 1-47.627907-47.627907V238.139535a47.627907 47.627907 0 0 1 47.627907-47.627907z m285.767442-190.511628h47.627907a47.627907 47.627907 0 0 1 47.627907 47.627907v928.744186a47.627907 47.627907 0 0 1-47.627907 47.627907h-47.627907a47.627907 47.627907 0 0 1-47.627907-47.627907V47.627907a47.627907 47.627907 0 0 1 47.627907-47.627907z m285.767442 190.511628h47.627907a47.627907 47.627907 0 0 1 47.627907 47.627907v547.72093a47.627907 47.627907 0 0 1-47.627907 47.627907h-47.627907a47.627907 47.627907 0 0 1-47.627907-47.627907V238.139535a47.627907 47.627907 0 0 1 47.627907-47.627907z m285.767441 214.325581h47.627907a47.627907 47.627907 0 0 1 47.627907 47.627907v119.069768a47.627907 47.627907 0 0 1-47.627907 47.627907h-47.627907a47.627907 47.627907 0 0 1-47.627907-47.627907v-119.069768a47.627907 47.627907 0 0 1 47.627907-47.627907z" p-id="15560"></path></svg>