<?xml version="1.0" standalone="no"?><!DOCTYPE svg PUBLIC "-//W3C//DTD SVG 1.1//EN" "http://www.w3.org/Graphics/SVG/1.1/DTD/svg11.dtd"><svg t="1505180955465" class="icon" style="" viewBox="0 0 1024 1024" version="1.1" xmlns="http://www.w3.org/2000/svg" p-id="7808" xmlns:xlink="http://www.w3.org/1999/xlink" width="32" height="32"><defs><style type="text/css"></style></defs><path d="M370.65189 666.493501c46.079827-66.75175 214.399196-306.68685 277.43896-358.398656-80.383699 183.039314-238.783105 371.454607-333.502749 551.037933 175.039344 56.703787 254.399046-10.55996 351.038683-88.831667l-95.679641-17.471934c121.471544-38.079857 113.087576-23.99991 155.519417-80.191699a391.294533 391.294533 0 0 0 72.191729-167.679372l-79.103703 9.279966c25.151906-14.015947 81.471694-38.655855 90.367661-52.415804 23.807911-36.671862 86.527676-388.670542 87.295673-461.822268-241.855093 2.111992-628.093645 484.862182-655.99754 715.517317-28.031895 231.93513-304.318859 582.397816 130.49551-49.023816z" p-id="7809"></path></svg>