<?xml version="1.0" standalone="no"?><!DOCTYPE svg PUBLIC "-//W3C//DTD SVG 1.1//EN" "http://www.w3.org/Graphics/SVG/1.1/DTD/svg11.dtd"><svg t="1505181969087" class="icon" style="" viewBox="0 0 1194 1024" version="1.1" xmlns="http://www.w3.org/2000/svg" p-id="13317" xmlns:xlink="http://www.w3.org/1999/xlink" width="37.3125" height="32"><defs><style type="text/css"></style></defs><path d="M827.665161 281.099353H150.477724l203.113561-205.247106a44.804462 44.804462 0 0 0 0-62.726247 43.524334 43.524334 0 0 0-62.299538 0L12.650666 294.754046a44.804462 44.804462 0 0 0 0 62.726246l278.641081 281.628046a43.524334 43.524334 0 0 0 62.299538 0 45.359184 45.359184 0 0 0 0-63.152956L153.464689 373.69524h674.200472a278.641081 278.641081 0 0 1 0 557.282163H231.552465a46.511298 46.511298 0 0 0 0 93.022597h596.112696a371.492995 371.492995 0 0 0 0-742.900647z" p-id="13318"></path></svg>