<?xml version="1.0" standalone="no"?><!DOCTYPE svg PUBLIC "-//W3C//DTD SVG 1.1//EN" "http://www.w3.org/Graphics/SVG/1.1/DTD/svg11.dtd"><svg t="1505181448363" class="icon" style="" viewBox="0 0 1024 1024" version="1.1" xmlns="http://www.w3.org/2000/svg" p-id="10499" xmlns:xlink="http://www.w3.org/1999/xlink" width="32" height="32"><defs><style type="text/css"></style></defs><path d="M776.874667 258.833067h-50.5856c-0.8192 0-1.672533-0.2048-2.491734-0.2048-0.853333 0-1.706667 0.2048-2.525866 0.2048l-173.738667 0.2048 0.238933-31.982934a28.672 28.672 0 0 0-28.433066-28.672c-2.2528 0.034133-4.471467 0.170667-6.690134 0.443734a76.9024 76.9024 0 0 0-7.338666-0.4096 28.296533 28.296533 0 0 0-27.989334 28.637866l0.2048 31.982934H308.189867a28.740267 28.740267 0 0 0-6.485334-0.853334 32.324267 32.324267 0 0 0-6.485333 0.853334l-49.7664 0.2048a21.845333 21.845333 0 0 0-26.146133 22.186666 23.552 23.552 0 0 0 26.146133 24.439467h32.426667l0.2048 464.759467a54.613333 54.613333 0 0 0 53.521066 54.749866h27.784534v0.2048l307.131733-0.2048h27.784533a54.1696 54.1696 0 0 0 52.906667-57.275733l-0.2048-462.4384h29.9008a25.088 25.088 0 0 0 27.784533-24.6784 23.415467 23.415467 0 0 0-27.784533-22.186667zM700.0064 720.213333c0.2048 37.853867-6.894933 51.643733-31.573333 55.842134l-317.166934 0.2048a30.890667 30.890667 0 0 1-26.112-29.047467L324.9152 305.834667l375.057067-0.2048 0.2048 470.357333-0.2048-55.808zM442.368 354.986667a23.6544 23.6544 0 0 0-23.415467 24.064v325.290666a23.415467 23.415467 0 1 0 46.830934 0v-325.290666a23.6544 23.6544 0 0 0-23.415467-24.064z m140.6976 0a23.6544 23.6544 0 0 0-23.415467 24.064v325.290666a23.415467 23.415467 0 1 0 46.830934 0v-325.290666a23.6544 23.6544 0 0 0-23.415467-24.064z" p-id="10500"></path></svg>