<?xml version="1.0" standalone="no"?><!DOCTYPE svg PUBLIC "-//W3C//DTD SVG 1.1//EN" "http://www.w3.org/Graphics/SVG/1.1/DTD/svg11.dtd"><svg t="1505185341058" class="icon" style="" viewBox="0 0 1024 1024" version="1.1" xmlns="http://www.w3.org/2000/svg" p-id="15676" xmlns:xlink="http://www.w3.org/1999/xlink" width="32" height="32"><defs><style type="text/css"></style></defs><path d="M987.332363 477.086961a74.841951 74.841951 0 0 0-15.846015-46.075337c-2.194064-3.412988-365.921068-391.030908-365.921068-391.030908A124.939738 124.939738 0 0 0 513.65839 0.243785V0c-0.48757 0-1.218924 0.243785-1.706494 0.243785S510.732972 0 510.245402 0v0.243785a125.866121 125.866121 0 0 0-92.150675 39.736931S54.611508 427.598636 52.173659 431.011624A76.036496 76.036496 0 0 0 36.571429 477.086961v6.338407a96.026854 96.026854 0 0 0 96.051232 95.807448h22.915777v343.492861a112.99428 112.99428 0 0 0 224.769636 0v-343.736646h263.043859v343.736646a112.99428 112.99428 0 0 0 224.769636 0v-343.736646h23.159562A95.831827 95.831827 0 0 0 987.332363 483.425368v-6.338407zM844.230654 130.668682l0.487569 0.731355 72.404102 76.30466a26.645685 26.645685 0 0 0 37.786653 0.975139c0.243785 0 0.243785-0.243785 0.487569-0.243785l0.731355-0.975139a19.063976 19.063976 0 0 0 6.338406-11.945458 14.383306 14.383306 0 0 0 0.48757-3.412988c0.243785-1.218924 0.48757-2.437849 0.731355-3.900558l8.288685-141.395216a35.860752 35.860752 0 0 0-9.50761-26.328764c-0.243785 0-0.243785-0.243785-0.487569-0.243785a0.853247 0.853247 0 0 1-0.243785-0.48757v0.243785a33.812959 33.812959 0 0 0-25.841195-10.970318l-142.12657 0.243784c-1.462709 0-2.437849 0.243785-3.900558 0.243785a14.992769 14.992769 0 0 1-3.169203 0.243785 22.793884 22.793884 0 0 0-12.676813 5.850837l-0.975139 0.975139a0.243785 0.243785 0 0 0-0.243785 0.243785 27.084497 27.084497 0 0 0-0.975139 37.786653l72.404102 76.060874z" p-id="15677"></path></svg>