<?xml version="1.0" standalone="no"?><!DOCTYPE svg PUBLIC "-//W3C//DTD SVG 1.1//EN" "http://www.w3.org/Graphics/SVG/1.1/DTD/svg11.dtd"><svg t="1505181454285" class="icon" style="" viewBox="0 0 1024 1024" version="1.1" xmlns="http://www.w3.org/2000/svg" p-id="10616" xmlns:xlink="http://www.w3.org/1999/xlink" width="32" height="32"><defs><style type="text/css"></style></defs><path d="M512 819.2a307.2 307.2 0 1 1 0-614.4 307.2 307.2 0 0 1 0 614.4z m46.08-238.045867a23.074133 23.074133 0 0 0 16.349867-39.355733l-39.355734-39.3216V419.84a23.04 23.04 0 1 0-46.08 0v92.228267c0 6.3488 2.56 12.117333 6.7584 16.247466l46.011734 46.08a23.210667 23.210667 0 0 0 16.315733 6.7584zM512 373.76A138.410667 138.410667 0 0 1 650.24 512 138.376533 138.376533 0 0 1 512 650.24 138.376533 138.376533 0 0 1 373.76 512 138.376533 138.376533 0 0 1 512 373.76z m0-46.08a184.32 184.32 0 1 0 0 368.64 184.32 184.32 0 0 0 0-368.64z" p-id="10617"></path></svg>