<?xml version="1.0" standalone="no"?><!DOCTYPE svg PUBLIC "-//W3C//DTD SVG 1.1//EN" "http://www.w3.org/Graphics/SVG/1.1/DTD/svg11.dtd"><svg t="1505185411599" class="icon" style="" viewBox="0 0 1077 1024" version="1.1" xmlns="http://www.w3.org/2000/svg" p-id="16378" xmlns:xlink="http://www.w3.org/1999/xlink" width="33.65625" height="32"><defs><style type="text/css"></style></defs><path d="M539.701242 238.234969c-170.336975 0-313.761624 136.851468-313.761623 300.103416v317.883331h627.523247v-317.883331A307.808046 307.808046 0 0 0 539.701242 238.234969z m0-61.690918a41.971375 41.971375 0 0 0 44.826938-44.180395V48.582541A45.635116 45.635116 0 0 0 539.701242 0.091863a42.106072 42.106072 0 0 0-44.826937 44.180395v92.671073a47.278411 47.278411 0 0 0 44.826937 39.60072z m-264.462768 66.270593a42.106072 42.106072 0 0 0 0-61.690918l-62.741549-61.96031a48.76007 48.76007 0 0 0-62.741549-4.310283 42.106072 42.106072 0 0 0 0 61.690918l67.348164 66.270593a38.87336 38.87336 0 0 0 58.269631 0z m-107.568486 198.542386a44.180395 44.180395 0 0 0-17.941551-61.690918l-80.6831-35.290438a45.47348 45.47348 0 0 0-62.741549 17.510523A44.180395 44.180395 0 0 0 24.245339 423.577115l80.6831 35.290437c4.471918 0 4.471918 4.579675 8.970775 4.579675a55.467947 55.467947 0 0 0 53.878531-22.090197z m744.062509 0a44.180395 44.180395 0 0 1 17.914612-61.690918l76.211182-39.870113a45.796751 45.796751 0 0 1 62.741549 17.779915 44.180395 44.180395 0 0 1-17.941551 61.690918l-76.184243 39.60072c-4.471918 0-4.471918 4.579675-8.970775 4.579675a55.467947 55.467947 0 0 1-53.878531-22.090197z m-107.568486-198.542386a42.106072 42.106072 0 0 1 0-61.690918l62.741549-61.96031a48.76007 48.76007 0 0 1 62.741549-4.310283 42.106072 42.106072 0 0 1 0 61.690918l-67.348164 66.270593a38.87336 38.87336 0 0 1-58.269631 0zM1077.570615 957.513354A69.557183 69.557183 0 0 1 1005.858291 1023.783947H73.544194a66.351411 66.351411 0 1 1 0-132.271793H1010.222452a68.237159 68.237159 0 0 1 67.348163 66.0012z" p-id="16379"></path></svg>