<?xml version="1.0" standalone="no"?><!DOCTYPE svg PUBLIC "-//W3C//DTD SVG 1.1//EN" "http://www.w3.org/Graphics/SVG/1.1/DTD/svg11.dtd"><svg t="1505182468103" class="icon" style="" viewBox="0 0 1024 1024" version="1.1" xmlns="http://www.w3.org/2000/svg" p-id="14035" xmlns:xlink="http://www.w3.org/1999/xlink" width="32" height="32"><defs><style type="text/css"></style></defs><path d="M410.417929 574.770626H246.104629c-14.865569 0-26.917046 12.051477-26.917046 26.918069 0 14.864546 12.051477 26.916023 26.917046 26.916023h164.3133c14.865569 0 26.916023-12.050454 26.916023-26.916023 0-14.866592-12.050454-26.91807-26.916023-26.918069zM835.317175 711.149712h-72.480778v-74.277703c0-14.865569-12.051477-26.917046-26.91807-26.917046S709.001281 622.00644 709.001281 636.872009v98.305956c0 3.856841 0.824785 7.517207 2.287089 10.833743 3.388167 10.985192 13.621229 18.971074 25.720802 18.971074h98.30698c14.865569 0 26.917046-12.050454 26.917046-26.917047s-12.050454-26.916023-26.916023-26.916023zM528.853341 406.090878H246.104629c-14.865569 0-26.917046 12.050454-26.917046 26.916023s12.051477 26.91807 26.917046 26.91807h282.748712c14.864546 0 26.916023-12.0525 26.916023-26.91807s-12.051477-26.916023-26.916023-26.916023z" p-id="14036"></path><path d="M398.990668 906.748552h-0.12075l-281.736662 1.225921V118.639051h732.927715v259.337513c0 14.865569 12.050454 26.917046 26.917046 26.917046 14.864546 0 26.917046-12.050454 26.917046-26.917046V91.723028c0-14.866592-12.051477-26.917046-26.917046-26.917046H90.218256c-14.865569 0-26.917046 12.050454-26.917046 26.917046v843.286172a26.915 26.915 0 0 0 26.918069 26.917046h0.117681l308.770365-1.343601c14.866592-0.064468 26.863834-12.169157 26.799366-27.034726-0.066515-14.82566-12.104689-26.799366-26.916023-26.799367z" p-id="14037"></path><path d="M528.853341 237.411131H246.104629c-14.865569 0-26.917046 12.051477-26.917046 26.917046s12.051477 26.917046 26.917046 26.917047h282.748712c14.864546 0 26.916023-12.051477 26.916023-26.917047s-12.051477-26.917046-26.916023-26.917046zM735.216339 513.75804c-123.682927 0-224.308719 100.624768-224.308718 224.308719 0 123.684974 100.625792 224.309742 224.308718 224.309742 123.684974 0 224.309742-100.624768 224.309742-224.309742 0-123.682927-100.624768-224.308719-224.309742-224.308719z m0 394.784368c-93.998861 0-170.474626-76.473719-170.474626-170.475649 0-93.998861 76.474742-170.474626 170.474626-170.474626 93.999884 0 170.47565 76.474742 170.47565 170.474626-0.001023 94.000907-76.475765 170.47565-170.47565 170.475649z" p-id="14038"></path></svg>