<?xml version="1.0" standalone="no"?><!DOCTYPE svg PUBLIC "-//W3C//DTD SVG 1.1//EN" "http://www.w3.org/Graphics/SVG/1.1/DTD/svg11.dtd"><svg t="1514967579360" class="icon" style="" viewBox="0 0 1024 1024" version="1.1" xmlns="http://www.w3.org/2000/svg" p-id="2366" xmlns:xlink="http://www.w3.org/1999/xlink" width="200" height="200"><defs><style type="text/css"></style></defs><path d="M866.463395 982.541295 894.139071 954.86562 27.675676 954.86562 55.351351 982.541295 55.351351 114.210524 27.675676 141.886199 355.053717 141.886199C370.33857 141.886199 382.729393 129.495377 382.729393 114.210524 382.729393 98.92567 370.33857 86.534848 355.053717 86.534848L27.675676 86.534848C12.390822 86.534848 0 98.92567 0 114.210524L0 982.541295C0 997.82615 12.390822 1010.216971 27.675676 1010.216971L894.139071 1010.216971C909.423923 1010.216971 921.814747 997.82615 921.814747 982.541295L921.814747 654.229565C921.814747 638.944713 909.423923 626.553889 894.139071 626.553889 878.854216 626.553889 866.463395 638.944713 866.463395 654.229565L866.463395 982.541295Z" p-id="2367"></path><path d="M787.686716 67.561596C793.985467 73.860345 803.705009 73.851275 809.813224 67.743062L348.166543 529.389745C347.573184 529.983101 344.10062 536.100266 343.890717 536.936517L283.144889 778.947457C287.965057 759.74395 263.913762 735.904641 244.879707 740.682273L486.890651 679.936448C487.760434 679.718129 493.802269 676.29578 494.437423 675.660626L956.084105 214.013944C950.149638 219.948413 950.136503 230.011381 956.265572 236.140452L787.686716 67.561596ZM995.223422 253.15326 533.57674 714.799943C525.844361 722.532319 510.926895 730.971623 500.366073 733.622435L258.355128 794.368257C237.048 799.716443 224.036609 787.074419 229.458904 765.472035L290.204733 523.461095C292.867731 512.851727 301.396591 497.881063 309.027226 490.250428L770.673908 28.603746C786.229998 13.047654 811.556839 13.153086 826.826032 28.42228L995.404889 197.001136C1010.860757 212.457006 1010.936314 237.440368 995.223422 253.15326Z" p-id="2368"></path></svg>