<?xml version="1.0" standalone="no"?><!DOCTYPE svg PUBLIC "-//W3C//DTD SVG 1.1//EN" "http://www.w3.org/Graphics/SVG/1.1/DTD/svg11.dtd"><svg t="1505181438049" class="icon" style="" viewBox="0 0 1024 1024" version="1.1" xmlns="http://www.w3.org/2000/svg" p-id="10148" xmlns:xlink="http://www.w3.org/1999/xlink" width="32" height="32"><defs><style type="text/css"></style></defs><path d="M688.384 408.533333c0-10.837333 1.92-21.418667 5.717333-31.36 3.669333-9.685333 8.917333-18.389333 15.616-25.898666a73.813333 73.813333 0 0 1 23.466667-17.664 67.712 67.712 0 0 1 58.282667 0c8.832 4.181333 16.725333 10.112 23.466666 17.664 6.741333 7.509333 11.989333 16.213333 15.658667 25.856 3.754667 9.984 5.674667 20.565333 5.674667 31.402666 0 10.88-1.92 21.418667-5.674667 31.402667-3.669333 9.642667-8.96 18.346667-15.616 25.856a73.813333 73.813333 0 0 1-23.509333 17.664 67.968 67.968 0 0 1-22.058667 6.229333l-45.568 241.962667a21.504 21.504 0 0 1-20.736 18.090667H320.981333a21.504 21.504 0 0 1-20.736-18.090667l-45.610666-241.962667a67.968 67.968 0 0 1-22.101334-6.229333 73.856 73.856 0 0 1-23.466666-17.664 82.176 82.176 0 0 1-15.658667-25.856 88.277333 88.277333 0 0 1-5.674667-31.402667c0-10.837333 1.92-21.418667 5.674667-31.36 3.669333-9.685333 8.96-18.389333 15.616-25.898666a73.813333 73.813333 0 0 1 23.509333-17.664 67.712 67.712 0 0 1 58.24 0c8.832 4.181333 16.768 10.112 23.509334 17.664 6.698667 7.509333 11.946667 16.213333 15.616 25.898666a89.472 89.472 0 0 1 2.56 54.741334l78.293333 63.104 54.186667-141.568c-16.938667-15.36-26.88-38.4-26.88-62.890667 0-10.837333 1.92-21.418667 5.717333-31.402667 3.626667-9.642667 8.874667-18.346667 15.616-25.856a73.813333 73.813333 0 0 1 23.466667-17.664 67.712 67.712 0 0 1 58.24 0c8.832 4.181333 16.768 10.112 23.509333 17.664 6.741333 7.509333 11.946667 16.213333 15.616 25.856 3.797333 9.984 5.717333 20.565333 5.717333 31.402667 0 24.448-9.941333 47.445333-26.88 62.848l54.272 141.610667 78.165334-63.061334a89.429333 89.429333 0 0 1-3.114667-23.424zM524.202667 324.266667c11.776-5.674667 19.498667-18.901333 19.498666-33.664 0-20.224-14.378667-36.48-31.701333-36.48-17.322667 0-31.701333 16.256-31.701333 36.48 0 14.805333 7.722667 28.032 19.541333 33.706666 6.826667 3.285333 11.178667 9.941333 12.202667 17.28a22.357333 22.357333 0 0 1 12.16-17.322666z m-12.16 17.322666a23.893333 23.893333 0 0 1 0 6.4 23.893333 23.893333 0 0 1 0-6.4z m-1.365334 11.733334l-71.253333 185.898666a21.632 21.632 0 0 1-13.824 13.141334 20.096 20.096 0 0 1-18.432-3.712l-113.194667-91.306667a23.466667 23.466667 0 0 1-5.504-29.354667 40.448 40.448 0 0 0 4.864-19.413333c0-20.224-14.336-36.48-31.658666-36.48-17.365333 0-31.701333 16.256-31.701334 36.48s14.336 36.48 31.701334 36.48a28.032 28.032 0 0 0 5.930666-0.64c11.52-2.517333 22.613333 5.461333 24.917334 17.621333l45.738666 242.730667h347.562667l45.738667-242.688c2.261333-12.16 13.354667-20.138667 24.874666-17.664a27.733333 27.733333 0 0 0 5.888 0.64c17.365333 0 31.701333-16.213333 31.701334-36.48 0-20.224-14.336-36.48-31.701334-36.48-17.322667 0-31.658667 16.256-31.658666 36.48 0 6.912 1.706667 13.653333 4.864 19.456a23.466667 23.466667 0 0 1-5.461334 29.312l-113.152 91.306667a20.096 20.096 0 0 1-18.432 3.712 21.632 21.632 0 0 1-13.866666-13.141334l-71.253334-185.941333a23.722667 23.722667 0 0 1-1.322666-5.290667 23.722667 23.722667 0 0 1-1.365334 5.333334z m182.442667 409.941333c13.44 0 24.234667 11.648 24.234667 25.856 0 14.208-10.794667 25.856-24.234667 25.856H326.656c-13.44 0-24.192-11.648-24.192-25.856 0-14.208 10.752-25.856 24.192-25.856h366.506667z" p-id="10149"></path></svg>