<?xml version="1.0" standalone="no"?><!DOCTYPE svg PUBLIC "-//W3C//DTD SVG 1.1//EN" "http://www.w3.org/Graphics/SVG/1.1/DTD/svg11.dtd"><svg t="1505185222465" class="icon" style="" viewBox="0 0 1024 1024" version="1.1" xmlns="http://www.w3.org/2000/svg" p-id="14623" xmlns:xlink="http://www.w3.org/1999/xlink" width="32" height="32"><defs><style type="text/css"></style></defs><path d="M875.985455 29.835636 171.287273 29.835636c-69.748364 0-74.193455 48.802909-74.193455 74.193455L97.093818 215.272727l0 0 0 111.266909 0 0 0 333.800727 0 0 0 111.243636 0 0 0 148.363636c0 64.302545 48.477091 74.193455 74.193455 74.193455L875.985455 994.141091c65.140364 0 74.193455-48.802909 74.193455-74.193455L950.178909 104.029091C950.155636 58.274909 919.086545 29.835636 875.985455 29.835636L875.985455 29.835636zM245.457455 437.829818l226.722909 0c5.236364 0 32.907636 5.003636 32.907636 24.738909l0 24.715636c0 3.397818-7.354182 24.738909-37.096727 24.738909l-222.533818 0c-5.236364 0-37.096727-1.931636-37.096727-24.738909l0-24.715636C208.384 462.545455 204.288 444.066909 245.457455 437.829818zM838.888727 821.061818c0 24.250182-31.511273 24.738909-37.096727 24.738909L245.457455 845.800727c-5.399273 0-37.096727 1.210182-37.096727-24.738909l0-24.715636c0-24.273455 31.534545-24.738909 37.096727-24.738909l554.379636 0c30.906182 0 39.051636 21.224727 39.051636 24.738909L838.888727 821.061818 838.888727 821.061818zM838.888727 672.698182c0 3.397818-9.472 24.738909-37.096727 24.738909L245.457455 697.437091c-5.399273 0-37.096727-1.931636-37.096727-24.738909l0-24.715636c0-3.397818 4.864-24.738909 37.096727-24.738909l554.379636 0c33.233455 0 39.051636 21.224727 39.051636 24.738909L838.888727 672.698182 838.888727 672.698182zM838.679273 386.839273c0 12.520727-4.096 17.268364-9.146182 11.170909l-61.370182-74.612364c-2.024727-2.420364-5.166545-2.397091-7.168 0l-61.370182 74.612364c-5.096727 6.213818-9.053091 1.093818-9.053091-11.170909L690.571636 150.528c0-5.213091 3.607273-9.402182 7.098182-9.402182l133.794909 0c3.956364 0 7.191273 4.887273 7.191273 9.402182L838.656 386.839273 838.679273 386.839273z" p-id="14624"></path></svg>