<?xml version="1.0" standalone="no"?><!DOCTYPE svg PUBLIC "-//W3C//DTD SVG 1.1//EN" "http://www.w3.org/Graphics/SVG/1.1/DTD/svg11.dtd"><svg t="1505181183296" class="icon" style="" viewBox="0 0 1024 1024" version="1.1" xmlns="http://www.w3.org/2000/svg" p-id="8861" xmlns:xlink="http://www.w3.org/1999/xlink" width="32" height="32"><defs><style type="text/css"></style></defs><path d="M473.7893030144801 648.5975195620682c-1.3728393925835989 7.436212817884712-3.031687550565226 13.270780236365006-5.090944963611289 17.332097331367933-2.059259088875398 4.061317095002925-6.806995880170124 8.52304512089962-14.300411456632045 13.270780236365006-17.675307179513833 10.86831129934371-36.72345375161127 19.67736518564136-57.144439716292304 26.48436106581149-20.36378488193316 6.806995880170124-39.92674622624944 14.300409780802708-58.63168127437165 22.423042294979222a167.60080973652407 167.60080973652407 0 0 0-48.96460611936792 32.14732356021883c-13.957199932656808 13.213579153617136-22.651849977629375 32.090120801641625-26.026745700511174 56.57242218549623-1.3728393925835989 7.436212817884712-2.2308640129483477 14.75802347027369-2.5740738610942477 21.90822919858971-0.3432098481458997 7.150205728316022-0.8580246203647492 13.728393925835988-1.5444443166565487 19.84897010971431a33.291355270152266 33.291355270152266 0 0 1-2.0020580061275273 3.603703405531946 33.291355270152266 33.291355270152266 0 0 0-2.059259088875398 3.546500646954739 3537.6355097638607 3537.6355097638607 0 0 1-80.65431431428641-7.150204052486684 1567.8969901717944 1567.8969901717944 0 0 1-74.9341507371312-9.152263734443547c-22.823454901702334-3.432098481458997-42.04320639787271-6.806995880170124-57.65925448851114-10.181891603051913-15.673249173386305-3.432098481458997-25.51193260412165-6.806995880170124-29.573248023295246-10.181891603051913-6.120576183878324-4.804937874042595-10.753909133847968-19.04814657209743-13.785595008583856-42.84402993548959-3.0888886333130974-23.795883363392154-1.887654164802448-54.68476969652313 3.546500646954739-92.78106284071801 3.432098481458997-21.050204578224957 12.06954576785436-37.18106744108225 26.0267473763405-48.392588588571854a160.1645952428101 160.1645952428101 0 0 1 49.479419215757424-26.541560472730012c19.04814657209743-6.406583273447016 38.611107916413715-12.35555453325239 58.688884032948835-17.84691210358678 20.020575033787264-5.434156487586524 37.92468822012192-12.87036930547124 53.540736310760344-22.423043970808557 12.241150691927308-8.122632514176512 21.62222043319168-15.616048090638435 28.028805382468033-22.423043970808557a63.49382190699145 63.49382190699145 0 0 0 13.84279609133173-20.87859797832267c2.688477702419326-7.150205728316022 4.061317095002925-14.414813622127784 4.061317095002925-21.90822919858971 0-7.436212817884712-0.3432098481458997-15.616048090638435-1.029629544437699-24.48230305968396-1.3728393925835989-13.613990084510908-5.948971259805374-24.310698135611005-13.728393925835988-32.090120801641625a462.0176566871288 462.0176566871288 0 0 0-26.0267473763405-24.024689370212972 39.18312377138043 39.18312377138043 0 0 1-13.785595008583856-16.245265028353025 212.61850092638488 212.61850092638488 0 0 1-9.724279589410266-22.423043970808557 472.82876690372467 472.82876690372467 0 0 1-8.122632514176512-27.57119169299705 51.48147722188496 51.48147722188496 0 0 1-12.241150691927308-6.063373425301116 57.087238633544416 57.087238633544416 0 0 1-10.753909133847968-12.241150691927308 98.95884010734417 98.95884010734417 0 0 1-10.696706375270763-22.423043970808557 67.04032422977552 67.04032422977552 0 0 1 1.029629544437699-48.9074033607907 49.30781429168447 49.30781429168447 0 0 1 11.211521147489611-18.418927958553507c-0.6864196962917994-21.736624274516757 0.3432098481458997-43.816456721350065 3.0888886333130974-66.23950069215863 2.688477702419326-18.30452579305776 7.093002969738817-38.03909206144699 13.213579153617136-59.146497722419824 6.120576183878324-21.050204578224957 15.330039325240406-40.04114839174518 27.57119169299705-57.087238633544416 10.86831129934371-16.302467786930233 23.109463667100364-29.573248023295246 36.72345375161127-39.75513962634715a191.05348157594102 191.05348157594102 0 0 1 41.3567867015809-23.9674882874651c13.899998849908938-5.720163577155216 28.028803706638683-9.66707683083306 42.3292134874414-11.72633591970846 14.300409780802708-2.0020580061275273 28.200408630711642-3.031687550565226 41.8144003910519-3.031687550565226 34.03497604919193 0 64.63785529275422 7.150205728316022 91.86583546177604 21.393414426370857 27.170779086273935 14.300409780802708 47.591765050954976 29.573248023295246 61.205756811295224 45.87571581022547 8.809052210468312 11.554730995635511 14.414813622127784 22.308640129483482 16.817282559149085 32.147321884389484 2.4024689370212977 9.838681754906013 5.605761411659474 21.1646067437207 9.724279589410266 34.14937989051702a207.0699422733026 207.0699422733026 0 0 0-41.3567867015809 33.119750346079314 374.67075033399726 374.67075033399726 0 0 0-38.26789806826781 44.33127316939827 209.58681337581962 209.58681337581962 0 0 0-30.602879243562278 63.20781314159342c-6.806995880170124 23.109463667100364-11.897940843781411 44.502876417641886-15.272838242492533 64.23744268603112-3.432098481458997 23.795883363392154-5.1481477221884955 47.591765050954976-5.1481477221884955 71.33044733159926a62.750201127951776 62.750201127951776 0 0 0-12.241150691927308 20.420985964681034 80.48270939021346 80.48270939021346 0 0 0-1.029629544437699 53.99835000023133c3.432098481458997 11.554730995635511 7.150205728316022 20.420985964681034 11.26872390606682 26.541560472730012 4.061317095002925 6.120576183878324 7.779422666030614 10.86831129934371 11.211521147489611 14.300411456632045a32.147321884389484 32.147321884389484 0 0 0 12.241150691927308 8.122632514176512c2.7456787851671978 10.86831129934371 5.434156487586524 21.050204578224957 8.17983527275372 30.545676484985066 2.688477702419326 8.17983527275372 5.948971259805374 16.53127379375106 9.724279589410266 24.997117831902806a46.1617245756235 46.1617245756235 0 0 0 13.728393925835988 18.87654164802448c4.747736791294725 4.061317095002925 8.52304512089962 7.436212817884712 11.211521147489611 10.181891603051913 2.7456787851671978 2.7456787851671978 4.919341715367675 5.262551563513572 6.635390956097174 7.665020500534871 1.7160492407294985 2.3452678542734264 2.7456787851671978 5.605761411659474 3.0888886333130974 9.66707683083306 0.3432098481458997 4.061317095002925 1.144033385762778 9.495471906760113 2.5168711025170394 16.302467786930233z m543.816004387178 187.62138309448204c2.7456787851671978 9.495471906760113 4.976542798115544 21.050204578224957 6.635390956097174 34.606993579987986 1.7160492407294985 13.613990084510908 2.5740738610942477 27.3423840103469 2.5740738610942477 41.29958561883304s-1.029629544437699 26.99917416220099-3.0888886333130974 39.2403248541283c-2.0020580061275273 12.241150691927308-5.090946639440624 21.393414426370857-9.152262058614212 27.513990610249184-2.7456787851671978 4.118518177750796-10.696706375270763 8.17983527275372-24.024689370212972 12.241150691927308-13.213579153617136 4.118518177750796-29.744852947368187 7.8366254246078215-49.42221813300956 11.211521147489611a1661.8792858051943 1661.8792858051943 0 0 1-137.28393925835982 17.332097331367933c-24.139093211538057 2.059259088875398-47.42016012688203 3.775308329604896-69.84320409769057 5.1481477221884955-22.48024505355643 1.3156383098357276-42.21481132194566 2.0020580061275273-59.203698805167704 2.0020580061275273-16.988887483222033 0-36.551848827538315-0.6864196962917994-58.688884032948835-2.059259088875398a2877.7001728620444 2877.7001728620444 0 0 1-68.87077731183008-5.090946639440624 4145.574554671573 4145.574554671573 0 0 1-70.35801886990942-6.635389280267835c-23.16666474984823-2.3452678542734264-44.38847425214613-5.090946639440624-63.779828996560134-8.12263419000585a728.348498848347 728.348498848347 0 0 1-48.96460611936792-9.152262058614212c-13.270780236365006-3.0888886333130974-21.62222043319168-6.006172342553243-24.99711615607347-8.69465004497257-5.434156487586524-4.747736791294725-9.895884513483221-19.04814657209743-13.270781912194348-42.84402825966025-3.432098481458997-23.73868060481495-2.4024689370212977-54.341559848377244 3.031687550565226-91.75143329628028 3.432098481458997-21.736624274516757 12.06954576785436-38.03909206144699 26.0267473763405-48.9074033607907 13.957199932656808-10.86831129934371 30.43127264366-19.734566268389234 49.479419215757424-26.484359389982146 19.04814657209743-6.864196962917994 38.611107916413715-12.755965464146158 58.688884032948835-17.84691210358678a177.21068548460931 177.21068548460931 0 0 0 81.62674277597624-45.36090271383596c6.463786032024221-6.864196962917994 11.211521147489611-13.613990084510908 14.300409780802708-20.420985964681034a51.53867830463281 51.53867830463281 0 0 0 4.576131867221774-21.393412750541525c0-7.436212817884712-0.3432098481458997-16.016459021532206-1.029629544437699-25.51193260412165-1.3728393925835989-13.55678900176304-6.120576183878324-24.2534953770338-14.300411456632045-32.03291971889375a357.56746068527957 357.56746068527957 0 0 0-26.484359389982146-22.99505982577528 54.68476969652313 54.68476969652313 0 0 1-12.755965464146158-17.332097331367933 212.61850092638488 212.61850092638488 0 0 1-9.724279589410266-22.423042294979222 472.82876690372467 472.82876690372467 0 0 1-8.17983527275372-27.513990610249184 51.48147722188496 51.48147722188496 0 0 1-12.241150691927308-6.120574508048986 57.087238633544416 57.087238633544416 0 0 1-10.696706375270763-12.241152367756648 98.95884010734417 98.95884010734417 0 0 1-10.696708051100098-22.423042294979222 64.63785529275422 64.63785529275422 0 0 1-4.118518177750796-26.999175838030336 57.03003587496721 57.03003587496721 0 0 1 5.1481477221884955-20.93580073689988c2.688477702419326-6.749793121592914 6.463786032024221-12.87036930547124 11.211522823318948-18.304524117228425-0.6864196962917994-21.736624274516757 0.3432098481458997-43.873659479927284 3.0316858747358895-66.29670345073585 2.7456787851671978-19.04814657209743 6.9786008042430705-38.897116681811745 12.755967139975496-59.60410973606145 5.777366335732424-20.764195812826927 14.815224553021558-39.92674622624944 27.05637524494887-57.60205340576328 10.86831129934371-16.302467786930233 23.109463667100364-29.573248023295246 36.72345375161127-39.75513962634715a183.1024539858375 183.1024539858375 0 0 1 84.65843032654148-35.69382420717356c14.300409780802708-2.059259088875398 27.91440154114296-3.0888886333130974 40.84197192936207-3.0888886333130974 34.72139574548374 0 65.6674848371919 7.150205728316022 92.83826392346586 21.450615509118734 27.227981844851154 14.300409780802708 47.30575796138628 29.51604694054738 60.2333283496054 45.87571581022547 14.929628394346636 18.30452579305776 26.0267473763405 38.897116681811745 33.17695142882719 61.663368824936846 7.093002969738817 22.766253818954457 12.35555453325239 44.04526440400024 15.787653014711388 63.722629589641585 3.432098481458997 23.109463667100364 4.747736791294725 46.21892565837139 4.061317095002925 69.32838932547173 3.432098481458997 2.688477702419326 6.463786032024221 6.406583273447016 9.152262058614212 11.211521147489611 2.059259088875398 4.004114336425718 4.004114336425718 9.32386698268716 5.662962494407344 15.787653014711388 1.7160492407294985 6.463786032024221 1.887654164802448 14.414813622127784 0.5148147722188495 23.9674882874651a80.65431431428641 80.65431431428641 0 0 1-8.17983527275372 29.51604694054738c-4.061317095002925 7.493415576461921-8.17983527275372 13.270780236365006-12.241150691927308 17.332097331367933a32.8909443392585 32.8909443392585 0 0 1-16.302467786930233 9.152262058614212 472.82876690372467 472.82876690372467 0 0 1-8.17983527275372 27.57119169299705 163.5966937242691 163.5966937242691 0 0 1-10.181891603051913 22.423042294979222 47.64896780953218 47.64896780953218 0 0 1-13.270780236365006 16.302467786930233 307.9736376281971 307.9736376281971 0 0 1-14.815226228850893 12.241152367756648c-4.4045269431488245 3.432098481458997-8.35144019682667 6.9786008042430705-11.72633591970846 10.696706375270763a56.17201125460247 56.17201125460247 0 0 0-8.69465004497257 12.755965464146158 69.21398548414665 69.21398548414665 0 0 0-5.605759735830135 17.332097331367933 142.43208698054838 142.43208698054838 0 0 0-1.5444443166565487 26.999175838030336c0.3432098481458997 9.152262058614212 2.5740738610942477 18.19012195173268 6.635389280267835 27.05637524494887 4.118518177750796 8.809052210468312 10.753909133847968 17.332097331367933 19.906171192462175 25.454731521373784 9.152262058614212 8.17983527275372 21.965430281337582 15.272838242492533 38.32510082684501 21.393412750541525 14.243208698054842 6.120576183878324 30.03086171276622 11.44032883013977 47.42016012688203 15.844855773288593 17.332097331367933 4.4045269431488245 33.977774966444066 9.66707683083306 49.99423398797628 15.787653014711388 16.016459021532206 6.120576183878324 30.259667719587057 13.899998849908938 42.84402993548959 23.45267183941692 12.584360540073215 9.495471906760113 21.565019350443805 21.736624274516757 26.99917416220099 36.6662526688634z" p-id="8862"></path></svg>