<?xml version="1.0" standalone="no"?><!DOCTYPE svg PUBLIC "-//W3C//DTD SVG 1.1//EN" "http://www.w3.org/Graphics/SVG/1.1/DTD/svg11.dtd"><svg t="1505181188573" class="icon" style="" viewBox="0 0 1024 1024" version="1.1" xmlns="http://www.w3.org/2000/svg" p-id="8978" xmlns:xlink="http://www.w3.org/1999/xlink" width="32" height="32"><defs><style type="text/css"></style></defs><path d="M551.7908912457186 592.2253025278004c-34.3209842908933 115.29705888520984-67.73031847004239 198.7399521682883-100.22800096635727 250.32868299141552-32.49768249631487 51.58873082312721-70.7870311800918 89.7708259056619-114.65353884884625 114.76079245008854-43.97376126999673 24.93634052935052-94.00732194501616 37.32407098586658-150.15430961122445 37.32407098586658-35.9297804540772 0-62.20678550014098-5.791666187462058-78.83101199601133-17.4286245774623-16.62422649587035-11.583332374924115-24.93634052935052-24.989966544426654-24.93634052935052-40.32715768083988 0-14.425539453579011 6.917823501690792-26.813269910095073 20.699844489996238-37.32407098586658 13.782020988305451-10.564428661937644 32.06866966243584-15.766202399202268 55.02082878088953-15.766202399202268 18.71566150800942 0 33.03394736034618 4.021990407959761 42.90123154193412 12.119597238955413 9.920910196664078 8.151234417161785 14.854550716368053 18.23302265905425 14.854550716368053 30.513501085418056 0 11.368826743529592-3.1103387251255477 19.788192807162027-9.384643761542776 25.204473746911177-6.2743050364172275 5.416280939749147-9.438271347708909 9.116512115072124-9.438271347708909 10.832560308408292l3.16396631129168 3.2712183414439386c2.681327462336509 1.8233017945784247 6.006171818856577 2.734953477412638 9.438269776618906 2.681327462336509a51.80323645452174 51.80323645452174 0 0 0 31.907791617207447-9.867282610497947c21.826001804224976-16.57060048079422 38.611107916413715-37.21681738462432 49.12190899218523-60.27623010432029 7.775847598358871-16.141587646915177 22.4158926833324-58.77468597128865 43.705629623526086-127.79204137187816l127.89929497312042-421.9872336031382H214.69446904361445l21.02160372263302-61.5096410197913c31.21064556576775 0.42901283387904227 214.88154138629358-2.895833093731029 229.092573637388-9.867282610497947 14.425539453579011-6.971449516766918 29.280090169947066-22.737651915969188 44.939038967907074-47.19135359636455 46.27970348462033-71.6450552767599 94.91897362785038-122.96565288232647 145.86418598570404-154.01542040286583 49.39004220974587-30.620753115570317 109.29088549526325-46.97684796497002 170.7468989288884-46.54783513109097 40.0053984482031 0 69.12460900183176 6.5424382539778785 87.41125767596215 19.680939205919767 18.179396643978126 13.13850252303189 27.24228117288412 30.13811426661514 27.24228274397412 51.106091974172045 0 17.91126342641747-6.006171818856577 32.17592326367809-17.9648910125836 42.90123154193412-11.958717622637023 10.778934293332162-27.027775541489596 16.087961631839043-45.26079820054386 16.087961631839043-16.62422649587035 0-30.406247484175807-4.343749640596543-41.346061393826346-13.084876507955757a39.30825239676339 39.30825239676339 0 0 1-16.40972086447583-31.478777212238406c0-8.741125296269214 3.53935155900459-18.018517027659733 10.564427090847639-27.88580120924769 6.971449516766918-9.813656595421818 10.51080107577151-16.46334687955196 10.510802646861514-19.895444837314287a11.422452758605724 11.422452758605724 0 0 0-4.665508873233322-9.545524948951169 19.841818822238157 19.841818822238157 0 0 0-12.494984057758327-3.53935155900459c-24.989966544426654 0-50.46257350889847 12.65586367407672-76.41781775123548 38.021217037306286-42.686724339449604 41.45331499506861-76.95408261526678 106.60955960401675-102.96295444376992 195.2542266243599h198.52544653689387l-21.826001804224976 61.67052063610969H625.1519962869047l-73.36110504118605 243.57173910604322z" p-id="8979"></path></svg>